<?xml version="1.0" encoding="UTF-8"?>
<svg width="38px" height="41px" viewBox="0 0 38 41" version="1.1" xmlns="http://www.w3.org/2000/svg" xmlns:xlink="http://www.w3.org/1999/xlink">
    <!-- Generator:Sketch 53.2 (72643) - https://sketchapp.com -->
    <title>brand-promotion</title>
    <desc>Created with Sketch.</desc>
    <g id="Page-1" stroke="none" stroke-width="1" fill="none" fill-rule="evenodd">
        <g id="VP-Types" transform="translate(-54.000000, -509.000000)" fill-rule="nonzero">
            <g id="brand-promotion" transform="translate(54.000000, 509.000000)">
                <path d="M3.91863415,14.0090244 L1.00190244,20.6302927 C1.00190244,20.6302927 2.0362439,25.2014146 7.6824878,21.1539512 L9.28312195,14.0090244 L3.91863415,14.0090244 Z" id="Path" fill="#F78F1E"></path>
                <path d="M14.6439024,14.0090244 L14.6439024,21.6247805 C14.6439024,21.6247805 17.8442439,25.2004878 21.420878,21.6247805 L21.420878,14.0090244 L14.6439024,14.0090244 L14.6439024,14.0090244 Z" id="Path" fill="#F78F1E"></path>
                <path d="M26.6899024,14.0090244 L28.1950732,22.0956098 C28.1950732,22.0956098 31.0172683,25.6518537 34.1230732,20.6747805 L30.405561,14.0099512 L26.6899024,14.0099512 L26.6899024,14.0090244 Z" id="Path" fill="#F78F1E"></path>
                <path d="M18.0323902,33.9525366 C18.0323902,33.9525366 21.5144878,31.1294146 22.6433659,26.4239024 C22.6433659,26.4239024 24.2430732,33.4807805 26.6899024,35.4577073 C26.6899024,35.4577073 21.7017073,34.0452195 18.0323902,33.9525366 Z" id="Path" fill="#F78F1E"></path>
                <path d="M32.2953659,24.3802439 L32.2953659,28.0847805 L31.2823415,28.0847805 L31.2823415,24.1253659 C32.7133659,23.8843902 34.150878,22.9733171 34.6189268,21.4931707 C34.8200488,21.268878 34.8738049,20.9361463 34.7310732,20.6525366 L31.2823415,13.8310732 L31.2823415,9.11814634 C31.2823415,7.14585366 29.6789268,5.54243902 27.7084878,5.54243902 L24.9576585,5.54243902 C25.2672195,5.02897561 25.4479512,4.41912195 25.4479512,3.76292683 L25.4479512,3.62853659 C25.4479512,1.8175122 24.0753171,0.345707317 22.3866341,0.345707317 L11.7623902,0.345707317 C10.0746341,0.345707317 8.69921951,1.8175122 8.69921951,3.62853659 L8.69921951,3.76292683 C8.69921951,4.41912195 8.88087805,5.02897561 9.19136585,5.54243902 L6.8177561,5.54243902 C4.84546341,5.54243902 3.24112195,7.14585366 3.24112195,9.11814634 L3.24112195,13.8468293 L0.299365854,20.2604878 C0.293804878,20.2716098 0.292878049,20.2827317 0.287317073,20.2929268 C0.277121951,20.3179512 0.267853659,20.3439024 0.261365854,20.3698537 C0.254878049,20.3920976 0.250243902,20.417122 0.244682927,20.4402927 C0.24097561,20.4643902 0.237268293,20.487561 0.235414634,20.5116585 C0.233560976,20.5376098 0.231707317,20.5644878 0.233560976,20.5913659 C0.233560976,20.6024878 0.230780488,20.6136098 0.231707317,20.6247317 C0.341073171,22.2198049 1.46439024,23.3088293 3.2364878,23.5414634 C3.23741463,23.5414634 3.23926829,23.5414634 3.24019512,23.5433171 L3.24019512,37.3410244 C3.24019512,39.3123902 4.84453659,40.9158049 6.81682927,40.9158049 L12.0849268,40.9158049 L21.0093659,40.9158049 L27.7066341,40.9158049 C29.6770732,40.9158049 31.2804878,39.3123902 31.2804878,37.3410244 L31.2804878,29.5899512 L32.2935122,29.5899512 L32.2935122,33.2944878 L37.7738537,33.2944878 L37.7738537,24.3802439 L32.2953659,24.3802439 L32.2953659,24.3802439 Z M33.2073659,20.9769268 C33.2036585,20.9880488 33.1980976,20.9963902 33.1943902,21.0065854 C32.8598049,22.1475122 31.3740976,22.8009268 30.248,22.6711707 C29.6390732,22.604439 28.9003902,22.2883902 28.8355122,21.1752683 C28.8355122,21.1734146 28.8336585,21.1724878 28.8336585,21.171561 C28.8336585,21.1567317 28.8299512,21.1437561 28.8290244,21.1298537 C28.8271707,21.1187317 28.8271707,21.1094634 28.8262439,21.0992683 L27.7946829,14.7643902 L30.0663415,14.7643902 L33.2073659,20.9769268 Z M8.57317073,20.7285366 L9.57878049,14.7634634 L13.8459024,14.7634634 L13.8459024,20.5051707 C13.3982439,21.5636098 11.6344878,22.3625366 10.1237561,22.1632683 C9.15058537,22.0362927 8.63063415,21.5552683 8.57317073,20.7285366 L8.57317073,20.7285366 Z M15.3501463,14.7643902 L20.6191707,14.7643902 L20.6191707,20.9917561 C20.6191707,21.014 20.6247317,21.0353171 20.6256585,21.0557073 C20.2020976,22.0863415 18.5773659,22.5979512 17.2751707,22.4274146 C16.5967317,22.3375122 15.4437561,22.0001463 15.3510732,20.7433659 L15.3510732,14.7643902 L15.3501463,14.7643902 Z M22.121561,21.1595122 C22.1187805,21.1409756 22.1150732,21.1252195 22.1122927,21.1066829 C22.1187805,21.0696098 22.1234146,21.0316098 22.1234146,20.9908293 L22.1234146,14.7643902 L26.2700488,14.7643902 L27.3062439,21.128 C26.833561,22.1317561 25.1967805,22.8500488 23.7342439,22.6600488 C23.039122,22.5682927 22.1966341,22.2364878 22.1224878,21.1687805 L22.1224878,21.1687805 C22.1224878,21.1650732 22.121561,21.1632195 22.121561,21.1595122 Z M10.2062439,3.76292683 L10.2062439,3.62853659 C10.2062439,2.64795122 10.9041463,1.84995122 11.7633171,1.84995122 L22.387561,1.84995122 C23.2458049,1.84995122 23.9446341,2.64795122 23.9446341,3.62853659 L23.9446341,3.76292683 C23.9446341,4.74443902 23.2458049,5.54243902 22.387561,5.54243902 L11.7623902,5.54243902 C10.9041463,5.5415122 10.2062439,4.7435122 10.2062439,3.76292683 Z M4.74814634,9.11814634 C4.74814634,7.97721951 5.67682927,7.04853659 6.81868293,7.04853659 L11.7623902,7.04853659 L22.3866341,7.04853659 L27.707561,7.04853659 C28.8484878,7.04853659 29.7762439,7.97721951 29.7762439,9.11814634 L29.7762439,13.2582927 L4.74814634,13.2582927 L4.74814634,9.11814634 Z M1.75726829,20.6970244 L4.45897561,14.8060976 L4.74907317,14.8060976 L4.74907317,14.7643902 L8.05321951,14.7643902 L7.09395122,20.4504878 C6.70190244,21.4922439 4.978,22.2513171 3.4357561,22.0492683 C2.7424878,21.9593659 1.91019512,21.6460976 1.75726829,20.6970244 Z M13.5947317,39.4106341 L13.5947317,29.7512195 L19.5060488,29.7512195 L19.5060488,31.9793171 C18.9490244,32.756 18.4559512,33.2481463 18.1028293,33.5447317 C17.7738049,33.8218537 17.567122,33.9302927 17.5532195,33.9377073 C17.3298537,34.0415122 17.2102927,34.2750732 17.2353171,34.5077073 C17.3493171,34.6420976 17.5254146,34.720878 17.7154146,34.7060488 C17.9897561,34.6810244 18.2566829,34.6643415 18.5217561,34.6532195 C18.8572683,34.6374634 19.1853659,34.6319024 19.5060488,34.6346829 L19.5060488,39.4097073 L13.5947317,39.4097073 L13.5947317,39.4106341 Z M25.2978049,31.8449268 C25.2116098,32.0367805 25.0957561,32.1822927 24.9845366,32.2823902 C24.8038049,31.9274146 24.6249268,31.5492683 24.4488293,31.1377561 C24.3654146,30.9403415 24.2866341,30.7457073 24.2124878,30.557561 C24.4580976,30.4917561 24.6796098,30.4889756 24.8603415,30.557561 C25.0753659,30.6372683 25.2440488,30.8189268 25.3608293,31.0988293 C25.4414634,31.2971707 25.4192195,31.5742927 25.2978049,31.8449268 Z M27.409122,35.5133171 C27.4054146,35.5114634 27.4017073,35.5068293 27.398,35.503122 C27.3850244,35.4957073 27.3498049,35.4734634 27.2960488,35.4410244 C26.8613659,35.1323902 26.2172195,34.4094634 25.5369268,33.2796585 C25.8631707,33.0581463 26.1449268,32.7161463 26.3293659,32.3046341 C26.5777561,31.7485366 26.6046341,31.1516585 26.404439,30.666 C26.1653171,30.0922927 25.7686341,29.6872683 25.2533171,29.4972683 C24.8223415,29.336 24.3394634,29.336 23.8343415,29.488 C23.396878,28.1098049 23.261561,27.0420976 23.2838049,26.3923902 C23.2838049,26.3821951 23.2856585,26.3729268 23.2856585,26.3636585 C23.3023415,25.986439 23.3727805,25.7556585 23.4691707,25.6954146 C23.9437073,25.6954146 25.4312683,27.1922439 26.7038049,30.1738537 C28.0486341,33.3232195 28.006,35.4150732 27.6955122,35.6124878 C27.6955122,35.6124878 27.6918049,35.6143415 27.6843902,35.6143415 C27.614878,35.6161951 27.5194146,35.5781951 27.409122,35.5133171 Z M22.4644878,28.7910244 C22.6795122,29.6715122 23.0020488,30.6252195 23.4107805,31.5807805 C23.8269268,32.5558049 24.3366829,33.5317561 24.8872195,34.3705366 C23.8704878,34.0331707 22.566439,33.7161951 21.0112195,33.5780976 C20.6052683,33.5419512 20.1817073,33.5169268 19.7414634,33.5076585 C20.1325854,33.06 20.5644878,32.4816585 21.0112195,31.7485366 C21.4913171,30.9570244 21.9880976,29.9866341 22.4644878,28.7910244 Z M29.7771707,37.3410244 C29.7771707,38.4819512 28.8494146,39.4106341 27.7084878,39.4106341 L21.0112195,39.4106341 L21.0112195,34.7153171 C24.6100976,35.0665854 26.7510732,36.430878 26.778878,36.447561 C26.8057561,36.4660976 26.8317073,36.4781463 26.8585854,36.491122 C27.1412683,36.6542439 27.4183902,36.7450732 27.6862439,36.7450732 C27.8456585,36.7450732 27.9967317,36.713561 28.1385366,36.6523902 C28.847561,36.3502439 29.1237561,35.4475122 28.9578537,33.9692195 C28.8216098,32.7476585 28.3897073,31.2424878 27.7437073,29.7299024 C26.6454146,27.1616585 24.9001951,24.5665366 23.4700976,24.5665366 C23.3116098,24.5665366 23.1577561,24.5980488 23.0178049,24.6592195 C22.5089756,24.8751707 22.224439,25.4034634 22.165122,26.2301951 C21.7980976,27.4322927 21.4069756,28.4527317 21.0121463,29.3202439 L21.0121463,28.2432683 L12.0877073,28.2432683 L12.0877073,39.4106341 L6.81960976,39.4106341 C5.6777561,39.4106341 4.74907317,38.4819512 4.74907317,37.3410244 L4.74907317,23.5266341 C5.78156098,23.3839024 6.81126829,22.9760976 7.55921951,22.3180488 C8.04395122,23.0400488 8.86141463,23.5182927 9.92819512,23.6563902 C10.1413659,23.685122 10.3619512,23.6999512 10.5843902,23.6999512 C11.9088293,23.6999512 13.3593171,23.2161463 14.3334146,22.3338049 C14.8765366,23.1827805 15.8358049,23.7564878 17.0796098,23.9196098 C17.3085366,23.9492683 17.5430244,23.9640976 17.7802927,23.9640976 C18.9907317,23.9640976 20.265122,23.5748293 21.1419024,22.8203902 C21.6386829,23.5386829 22.4681951,24.0122927 23.5396098,24.1531707 C23.75,24.1781951 23.9640976,24.1920976 24.1828293,24.1920976 C25.4748293,24.1920976 26.8882439,23.7221951 27.8400976,22.8667317 C28.2636585,23.5127317 28.9328293,23.9557561 29.7780976,24.1216585 L29.7780976,37.3410244 L29.7771707,37.3410244 Z M36.2705366,31.7893171 L33.7996098,31.7893171 L33.7996098,25.8854146 L36.2705366,25.8854146 L36.2705366,31.7893171 Z" id="Shape" fill="#25499C"></path>
            </g>
        </g>
    </g>
</svg>