<?xml version="1.0" encoding="UTF-8"?>
<svg width="35px" height="45px" viewBox="0 0 35 45" version="1.1" xmlns="http://www.w3.org/2000/svg" xmlns:xlink="http://www.w3.org/1999/xlink">
    <!-- Generator:Sketch 53.2 (72643) - https://sketchapp.com -->
    <title>corporate-building</title>
    <desc>Created with Sketch.</desc>
    <g id="Page-1" stroke="none" stroke-width="1" fill="none" fill-rule="evenodd">
        <g id="VP-Types" transform="translate(-56.000000, -253.000000)" fill-rule="nonzero">
            <g id="corporate-building" transform="translate(56.000000, 253.000000)">
                <rect id="Rectangle" fill="#F78F1E" x="4.005" y="29.553" width="17.905" height="2.137"></rect>
                <rect id="Rectangle" fill="#F78F1E" x="4.005" y="23.042" width="17.6" height="2.441"></rect>
                <rect id="Rectangle" fill="#F78F1E" x="4.005" y="16.785" width="17.6" height="2.34"></rect>
                <rect id="Rectangle" fill="#F78F1E" x="21.91" y="19.889" width="9.309" height="2.391"></rect>
                <rect id="Rectangle" fill="#F78F1E" x="21.91" y="26.094" width="9.309" height="2.392"></rect>
                <rect id="Rectangle" fill="#F78F1E" x="21.91" y="32.656" width="9.309" height="2.34"></rect>
                <path d="M31.895,40.348 L31.648,40.348 C31.805,40.042 31.895,39.697 31.895,39.329 L31.895,17.229 C31.895,15.996 30.891,14.992 29.657,14.992 L22.386,14.992 L22.386,14.945 L22.386,14.897 L22.386,13.733 C22.386,12.499 21.382,11.495 20.148,11.495 L20.063,11.495 L20.063,8.884 C20.063,7.65 19.059,6.647 17.826,6.647 L13.705,6.647 L13.705,1.458 C13.705,1.121 13.433,0.848 13.095,0.848 C12.758,0.848 12.485,1.121 12.485,1.458 L12.485,6.647 L8.365,6.647 C7.132,6.647 6.127,7.65 6.127,8.884 L6.127,11.495 L5.636,11.495 C4.402,11.495 3.398,12.499 3.398,13.733 L3.398,39.33 C3.398,39.697 3.488,40.043 3.645,40.349 L2.706,40.349 C1.479,40.349 0.482,41.346 0.482,42.573 C0.482,43.8 1.479,44.797 2.706,44.797 L31.898,44.797 C33.125,44.797 34.122,43.8 34.122,42.573 C34.122,41.346 33.121,40.348 31.895,40.348 Z M22.385,16.165 L23.01,16.165 L23.01,16.212 L29.656,16.212 C30.217,16.212 30.674,16.669 30.674,17.229 L30.674,19.633 L22.385,19.633 L22.385,16.165 Z M22.385,20.446 L30.674,20.446 L30.674,21.803 L22.385,21.803 L22.385,20.446 Z M22.385,22.616 L30.674,22.616 L30.674,25.905 L22.385,25.905 L22.385,22.616 Z M22.385,26.719 L30.674,26.719 L30.674,28.076 L22.385,28.076 L22.385,26.719 Z M22.385,28.89 L30.674,28.89 L30.674,32.418 L22.385,32.418 L22.385,28.89 Z M22.385,33.231 L30.674,33.231 L30.674,34.587 L22.385,34.587 L22.385,33.231 Z M22.385,35.401 L30.674,35.401 L30.674,39.329 C30.674,39.891 30.217,40.348 29.656,40.348 L22.784,40.348 L22.385,40.348 L22.385,35.401 Z M7.345,8.883 C7.345,8.321 7.802,7.865 8.363,7.865 L17.825,7.865 C18.386,7.865 18.842,8.321 18.842,8.883 L18.842,11.494 L7.345,11.494 L7.345,8.883 Z M4.615,13.732 C4.615,13.17 5.071,12.714 5.633,12.714 L6.279,12.714 L7.758,12.714 L18.428,12.714 L19.907,12.714 L20.147,12.714 C20.708,12.714 21.165,13.17 21.165,13.732 L21.165,14.896 L21.165,14.991 L21.165,16.118 L21.165,16.165 L21.165,16.212 L21.165,16.513 L4.615,16.513 L4.615,13.732 Z M4.615,17.326 L21.164,17.326 L21.164,18.683 L4.615,18.683 L4.615,17.326 Z M4.615,19.497 L21.164,19.497 L21.164,22.786 L4.615,22.786 L4.615,19.497 Z M4.615,23.601 L21.164,23.601 L21.164,24.992 L4.615,24.992 L4.615,23.601 Z M4.615,25.804 L21.164,25.804 L21.164,29.094 L4.615,29.094 L4.615,25.804 Z M4.615,29.906 L21.164,29.906 L21.164,31.298 L4.615,31.298 L4.615,29.906 Z M4.615,39.329 L4.615,32.112 L21.164,32.112 L21.164,40.3470016 L21.026,40.347 L20.146,40.347 L19.603,40.347 L19.291,40.347 L17.612,40.347 L15.364,40.347 L15.364,34.316 L10.786,34.316 L10.786,40.347 L5.632,40.347 C5.071,40.348 4.615,39.891 4.615,39.329 Z M14.552,40.348 L11.601,40.348 L11.601,35.131 L14.552,35.131 L14.552,40.348 Z M31.895,43.574 L2.702,43.574 C2.149,43.574 1.698,43.124 1.698,42.571 C1.698,42.017 2.149,41.567 2.702,41.567 L5.633,41.567 L19.604,41.567 L20.147,41.567 L29.657,41.567 L31.895,41.567 C32.448,41.567 32.898,42.017 32.898,42.571 C32.897,43.124 32.447,43.574 31.895,43.574 Z" id="Shape" fill="#25499C"></path>
            </g>
        </g>
    </g>
</svg>