<?xml version="1.0" encoding="UTF-8"?>
<svg width="60px" height="61px" viewBox="0 0 60 61" version="1.1" xmlns="http://www.w3.org/2000/svg" xmlns:xlink="http://www.w3.org/1999/xlink">
    <!-- Generator:Sketch 54.1 (76490) - https://sketchapp.com -->
    <title>iconfinder_online_social_media_facebook_734386</title>
    <desc>Created with Sketch.</desc>
    <g id="Page-1" stroke="none" stroke-width="1" fill="none" fill-rule="evenodd">
        <g id="Webpage_Venue-Select" transform="translate(-353.000000, -3271.000000)" fill-rule="nonzero">
            <g id="Group-26" transform="translate(-1.000000, 3071.762393)">
                <g id="Group-20" transform="translate(166.000000, 81.117949)">
                    <g id="iconfinder_online_social_media_facebook_734386" transform="translate(188.000000, 119.000000)">
                        <g id="Group-46">
                            <path d="M30,0 C13.430625,0 0,13.430625 0,30 C0,46.5675 13.430625,60 30,60 C46.569375,60 60,46.5675 60,30 C60,13.430625 46.569375,0 30,0 Z" id="Path" fill="#FF9008"></path>
                            <path d="M25.66875,46.693125 L32.566875,46.693125 L32.566875,29.998125 L37.168125,29.998125 L37.7775,24.245625 L32.566875,24.245625 L32.574375,21.365625 C32.574375,19.865625 32.716875,19.06125 34.869375,19.06125 L37.745625,19.06125 L37.745625,13.306875 L33.1425,13.306875 C27.613125,13.306875 25.66875,16.09875 25.66875,20.791875 L25.66875,24.245625 L22.2225,24.245625 L22.2225,30 L25.66875,30 L25.66875,46.693125 L25.66875,46.693125 Z" id="Path" fill="#FFFFFF"></path>
                        </g>
                    </g>
                </g>
            </g>
        </g>
    </g>
</svg>