<?xml version="1.0" encoding="UTF-8"?>
<svg width="130px" height="45px" viewBox="0 0 130 45" version="1.1" xmlns="http://www.w3.org/2000/svg" xmlns:xlink="http://www.w3.org/1999/xlink">
    <!-- Generator:Sketch 54.1 (76490) - https://sketchapp.com -->
    <title>Group 46</title>
    <desc>Created with Sketch.</desc>
    <g id="Page-1" stroke="none" stroke-width="1" fill="none" fill-rule="evenodd">
        <g id="Group-46">
            <g id="Group-2">
                <path d="M26.0563732,26.2172199 L33.7846255,26.2172199 C33.932677,26.2172199 34.1029338,26.1949382 34.2954008,26.1503742 C34.4878678,26.1058102 34.6729295,26.0092563 34.8505913,25.8607096 C35.0282532,25.7121629 35.1763025,25.5042006 35.2947438,25.2368165 C35.413185,24.9694325 35.4724047,24.6277802 35.4724047,24.2118494 C35.4724047,24.003884 35.4946121,23.8776212 35.5390276,23.8330572 C35.5834431,23.7884932 35.709285,23.7662115 35.9165572,23.7662115 L39.7806833,23.7662115 C39.9879555,23.7662115 40.1137974,23.7884932 40.1582129,23.8330572 C40.2026283,23.8776212 40.2248357,24.003884 40.2248357,24.2118494 L40.2248357,31.0301091 C40.2248357,31.2380745 40.2026283,31.3643373 40.1582129,31.4089013 C40.1137974,31.4534653 39.9879555,31.475747 39.7806833,31.475747 L17.7063075,31.475747 C17.4990353,31.475747 17.3731934,31.4534653 17.3287779,31.4089013 C17.2843625,31.3643373 17.2621551,31.2380745 17.2621551,31.0301091 L17.2621551,27.1976233 C17.2621551,26.9896579 17.2843625,26.8633951 17.3287779,26.8188311 C17.3731934,26.774267 17.4990353,26.7519854 17.7063075,26.7519854 C18.1208518,26.7519854 18.4539628,26.6925676 18.7056505,26.5737302 C18.9573381,26.4548929 19.1572047,26.3137756 19.3052562,26.1503742 C19.4533078,25.9869728 19.5569423,25.8087195 19.6161629,25.6156088 C19.6753836,25.422498 19.7049934,25.2516719 19.7049934,25.1031252 L19.7049934,6.65371651 C19.7049934,6.53487914 19.682786,6.37148021 19.6383706,6.16351483 C19.5939551,5.95554944 19.5051255,5.74758717 19.3718791,5.53962178 C19.2386327,5.33165639 19.0387661,5.16083024 18.7722733,5.0271382 C18.5057805,4.89344617 18.1504621,4.82660115 17.7063075,4.82660115 C17.4990353,4.82660115 17.3731934,4.80431948 17.3287779,4.75975547 C17.2843625,4.71519146 17.2621551,4.6037831 17.2621551,4.42552705 L17.2621551,0.548477404 C17.2621551,0.340512015 17.2843625,0.214249209 17.3287779,0.169685197 C17.3731934,0.125121185 17.4990353,0.102839513 17.7063075,0.102839513 L28.0994744,0.102839513 C28.3067465,0.102839513 28.4325885,0.125121185 28.4770039,0.169685197 C28.5214194,0.214249209 28.5436268,0.340512015 28.5436268,0.548477404 L28.5436268,4.42552705 C28.5436268,4.6037831 28.5214194,4.71519146 28.4770039,4.75975547 C28.4325885,4.80431948 28.3067465,4.82660115 28.0994744,4.82660115 C27.5960991,4.82660115 27.2037684,4.90087339 26.9224704,5.0494201 C26.6411725,5.19796681 26.4339034,5.37622018 26.300657,5.58418557 C26.1674106,5.79215096 26.093386,6.00011323 26.0785808,6.20807862 C26.0637757,6.416044 26.0563732,6.56458848 26.0563732,6.65371651 L26.0563732,26.2172199 Z M44.3554534,6.65371651 C44.3554534,6.53487914 44.333246,6.37148021 44.2888305,6.16351483 C44.244415,5.95554944 44.1555854,5.74758717 44.022339,5.53962178 C43.8890926,5.33165639 43.689226,5.16083024 43.4227332,5.0271382 C43.1562405,4.89344617 42.8009221,4.82660115 42.3567674,4.82660115 C42.1494952,4.82660115 42.0236533,4.80431948 41.9792378,4.75975547 C41.9348224,4.71519146 41.912615,4.6037831 41.912615,4.42552705 L41.912615,0.548477404 C41.912615,0.340512015 41.9348224,0.214249209 41.9792378,0.169685197 C42.0236533,0.125121185 42.1494952,0.102839513 42.3567674,0.102839513 L59.5898817,0.102839513 C60.9223457,0.102839513 62.1733625,0.347937902 63.3429698,0.838142033 C64.512577,1.32834616 65.5267149,2.00422354 66.3854139,2.86579444 C67.2441129,3.72736533 67.9251398,4.75232223 68.4285151,5.94069588 C68.9318904,7.12906953 69.1835742,8.43626094 69.1835742,9.86230932 C69.1835742,11.050683 69.0133175,12.1424849 68.6727989,13.1377478 C68.3322804,14.1330107 67.8511201,15.0242776 67.2293035,15.8115752 C66.607487,16.5988727 65.8672404,17.2673229 65.0085414,17.8169457 C64.1498424,18.3665685 63.2171316,18.7750658 62.2103811,19.0424499 L66.1633377,25.2368165 C66.2225583,25.3259446 66.3187904,25.4522074 66.4520368,25.6156088 C66.5852832,25.7790101 66.8073572,25.9498363 67.1182654,26.1280923 C67.4291737,26.3063484 67.8363094,26.4548929 68.3396846,26.5737302 C68.8430599,26.6925676 69.479672,26.7519854 70.2495401,26.7519854 C70.4568122,26.7519854 70.5826542,26.774267 70.6270696,26.8188311 C70.6714851,26.8633951 70.6936925,26.9896579 70.6936925,27.1976233 L70.6936925,31.0301091 C70.6936925,31.2380745 70.6714851,31.3643373 70.6270696,31.4089013 C70.5826542,31.4534653 70.4568122,31.475747 70.2495401,31.475747 L64.5199737,31.475747 C64.3423119,31.475747 64.2090675,31.4534653 64.1202365,31.4089013 C64.0314056,31.3643373 63.942576,31.252929 63.8537451,31.0746729 L56.347569,19.5326515 L50.6624179,19.5326515 L50.6624179,24.9694338 C50.6624179,25.0585618 50.6698203,25.1996791 50.6846255,25.3927898 C50.6994306,25.5859005 50.7734553,25.7864356 50.9067017,25.994401 C51.0399481,26.2023663 51.2472172,26.3806197 51.5285151,26.5291664 C51.8098131,26.6777131 52.2021438,26.7519854 52.7055191,26.7519854 C52.8831809,26.7519854 52.9942179,26.774267 53.0386334,26.8188311 C53.0830488,26.8633951 53.1052562,26.9896579 53.1052562,27.1976233 L53.1052562,31.0301091 C53.1052562,31.2380745 53.0830488,31.3643373 53.0386334,31.4089013 C52.9942179,31.4534653 52.8831809,31.475747 52.7055191,31.475747 L42.3567674,31.475747 C42.1494952,31.475747 42.0236533,31.4534653 41.9792378,31.4089013 C41.9348224,31.3643373 41.912615,31.2380745 41.912615,31.0301091 L41.912615,27.1976233 C41.912615,26.9896579 41.9348224,26.8633951 41.9792378,26.8188311 C42.0236533,26.774267 42.1494952,26.7519854 42.3567674,26.7519854 C42.8009221,26.7519854 43.1562405,26.6777131 43.4227332,26.5291664 C43.689226,26.3806197 43.8890926,26.2097936 44.022339,26.0166829 C44.1555854,25.8235721 44.244415,25.6230371 44.2888305,25.4150717 C44.333246,25.2071063 44.3554534,25.0585618 44.3554534,24.9694338 L44.3554534,6.65371651 Z M58.6127464,14.363252 C59.1753423,14.363252 59.7157223,14.2444164 60.2339028,14.0067417 C60.7520832,13.769067 61.2110361,13.4496963 61.6107753,13.0486202 C62.0105145,12.6475441 62.3214181,12.1722018 62.5434954,11.622579 C62.7655727,11.0729562 62.8766097,10.5010599 62.8766097,9.90687311 C62.8766097,9.28297694 62.7655727,8.70365348 62.5434954,8.16888533 C62.3214181,7.63411719 62.0105145,7.16620209 61.6107753,6.76512598 C61.2110361,6.36404987 60.7446807,6.04467924 60.2116951,5.80700451 C59.6787096,5.56932978 59.1161221,5.4504942 58.5239159,5.4504942 L50.6624179,5.4504942 L50.6624179,14.363252 L58.6127464,14.363252 Z M99.8745072,31.0301091 C99.8745072,31.2380745 99.8522998,31.3643373 99.8078844,31.4089013 C99.7634689,31.4534653 99.637627,31.475747 99.4303548,31.475747 L93.3010512,31.475747 C93.0641688,31.475747 92.9161194,31.4534653 92.8568988,31.4089013 C92.7976782,31.3643373 92.7236535,31.252929 92.6348226,31.0746729 L79.7544021,8.79277838 L79.8876478,11.1100954 L79.8876478,25.0585614 C79.8876478,25.1476894 79.8950503,25.2888067 79.9098555,25.4819174 C79.9246606,25.6750281 79.9986853,25.8607087 80.1319317,26.0389647 C80.2651781,26.2172208 80.4650447,26.3806197 80.7315375,26.5291664 C80.9980302,26.6777131 81.3829585,26.7519854 81.8863338,26.7519854 C82.0936059,26.7519854 82.2194479,26.774267 82.2638633,26.8188311 C82.3082788,26.8633951 82.3304862,26.9896579 82.3304862,27.1976233 L82.3304862,31.0301091 C82.3304862,31.2380745 82.3082788,31.3643373 82.2638633,31.4089013 C82.2194479,31.4534653 82.0936059,31.475747 81.8863338,31.475747 L71.5375821,31.475747 C71.33031,31.475747 71.204468,31.4534653 71.1600526,31.4089013 C71.1156371,31.3643373 71.0934297,31.2380745 71.0934297,31.0301091 L71.0934297,27.1976233 C71.0934297,26.9896579 71.1156371,26.8633951 71.1600526,26.8188311 C71.204468,26.774267 71.33031,26.7519854 71.5375821,26.7519854 C71.9521265,26.7519854 72.2852375,26.6925676 72.5369251,26.5737302 C72.7886127,26.4548929 72.9884793,26.3137756 73.1365309,26.1503742 C73.2845824,25.9869728 73.388217,25.8087195 73.4474376,25.6156088 C73.5066582,25.422498 73.5362681,25.2516719 73.5362681,25.1031252 L73.5362681,6.69828029 C73.5362681,6.60915227 73.5140607,6.46060779 73.4696452,6.2526424 C73.4252297,6.04467702 73.3364001,5.83671475 73.2031537,5.62874936 C73.0699073,5.42078397 72.8700408,5.23510337 72.603548,5.07170199 C72.3370552,4.90830062 71.9817368,4.82660115 71.5375821,4.82660115 C71.33031,4.82660115 71.204468,4.80431948 71.1600526,4.75975547 C71.1156371,4.71519146 71.0934297,4.6037831 71.0934297,4.42552705 L71.0934297,0.548477404 C71.0934297,0.340512015 71.1156371,0.214249209 71.1600526,0.169685197 C71.204468,0.125121185 71.33031,0.102839513 71.5375821,0.102839513 L80.287385,0.102839513 C80.5242675,0.102839513 80.6797193,0.147402857 80.7537451,0.23653088 C80.8277708,0.325658904 80.9240029,0.474203382 81.0424442,0.682168771 L93.7452037,22.8749357 L93.4787122,20.4239273 L93.4787122,6.69828029 C93.4787122,6.54973359 93.4565048,6.37148021 93.4120894,6.16351483 C93.3676739,5.95554944 93.2714418,5.74758717 93.1233903,5.53962178 C92.9753387,5.33165639 92.7754721,5.16083024 92.5237845,5.0271382 C92.2720969,4.89344617 91.9389859,4.82660115 91.5244415,4.82660115 C91.3171694,4.82660115 91.1913274,4.80431948 91.146912,4.75975547 C91.1024965,4.71519146 91.0802891,4.6037831 91.0802891,4.42552705 L91.0802891,0.548477404 C91.0802891,0.310802674 91.109899,0.177112644 91.1691196,0.147403302 C91.2283402,0.117693961 91.3615846,0.102839513 91.5688568,0.102839513 L101.828778,0.102839513 C102.06566,0.102839513 102.206307,0.125121185 102.250723,0.169685197 C102.295138,0.214249209 102.317346,0.340512015 102.317346,0.548477404 L102.317346,4.42552705 C102.317346,4.6037831 102.295138,4.71519146 102.250723,4.75975547 C102.206307,4.80431948 102.06566,4.82660115 101.828778,4.82660115 C101.325403,4.82660115 100.947877,4.90830062 100.696189,5.07170199 C100.444502,5.23510337 100.252037,5.42078397 100.118791,5.62874936 C99.9855447,5.83671475 99.91152,6.05210424 99.8967148,6.2749243 C99.8819097,6.49774436 99.8745072,6.65371606 99.8745072,6.74284408 L99.8745072,31.0301091 Z" id="LRN" fill="#FF9008"></path>
                <path d="M5.49672648,16.9226679 C5.4715305,16.6716775 5.37704701,16.3767682 5.21327317,16.0379311 C5.04949933,15.699094 4.69046207,15.529678 4.13615062,15.529678 C3.95977879,15.529678 3.8526975,15.510854 3.81490354,15.4732054 C3.77710958,15.4355569 3.75821288,15.3414369 3.75821288,15.1908426 L3.75821288,12.1413241 C3.75821288,11.9656308 3.77710958,11.8589614 3.81490354,11.8213129 C3.8526975,11.7836643 3.95977879,11.7648403 4.13615062,11.7648403 L10.2209482,11.7648403 C10.3721241,11.7648403 10.4666076,11.7836643 10.5044015,11.8213129 C10.5421955,11.8589614 10.5610922,11.9656308 10.5610922,12.1413241 L10.5610922,26.0712235 C10.5610922,26.1967187 10.5862878,26.3473107 10.6366797,26.523004 C10.6870717,26.6986973 10.7563596,26.8618386 10.8445455,27.0124329 C10.9327314,27.1630271 11.0650083,27.2885205 11.2413801,27.3889166 C11.4177519,27.4893128 11.6445123,27.5395102 11.921668,27.5395102 C12.0980399,27.5395102 12.2051212,27.5583342 12.2429151,27.5959827 C12.2807091,27.6336313 12.2996058,27.7277513 12.2996058,27.8783455 L12.2996058,30.9278641 C12.2996058,31.1035574 12.2807091,31.2102267 12.2429151,31.2478753 C12.2051212,31.2855238 12.0980399,31.3043478 11.921668,31.3043478 L4.13615062,31.3043478 C3.95977879,31.3043478 3.8526975,31.2855238 3.81490354,31.2478753 C3.77710958,31.2102267 3.75821288,31.1035574 3.75821288,30.9278641 L3.75821288,27.8783455 C3.75821288,27.7277513 3.77710958,27.6336313 3.81490354,27.5959827 C3.8526975,27.5583342 3.95977879,27.5395102 4.13615062,27.5395102 C4.43850232,27.5395102 4.67786049,27.4830382 4.85423232,27.3700925 C5.03060415,27.2571468 5.16917993,27.1191041 5.26996383,26.9559603 C5.37074774,26.7928165 5.43373673,26.6296752 5.4589327,26.4665314 C5.48412868,26.3033876 5.49672648,26.1716196 5.49672648,26.0712235 L5.49672648,16.9226679 Z" id="i" fill="#24479D"></path>
                <path d="M2.13534823,37.5861281 L0.691852825,37.5861281 C0.663381373,37.5861281 0.630639694,37.5918413 0.593626807,37.603268 C0.556613919,37.6146947 0.521025138,37.638976 0.486859396,37.6761127 C0.452693653,37.7132493 0.424222628,37.7660969 0.401445466,37.8346569 C0.378668305,37.9032169 0.367279895,37.9917723 0.367279895,38.1003257 C0.367279895,38.1346057 0.35019728,38.1517454 0.316031537,38.1517454 L0.170827858,38.1517454 C0.136662116,38.1517454 0.119579501,38.1346057 0.119579501,38.1003257 L0.119579501,37.3204593 C0.119579501,37.2861793 0.136662116,37.2690396 0.170827858,37.2690396 L4.46714849,37.2690396 C4.50131423,37.2690396 4.51839685,37.2861793 4.51839685,37.3204593 L4.51839685,38.1003257 C4.51839685,38.1346057 4.50131423,38.1517454 4.46714849,38.1517454 L4.32194481,38.1517454 C4.28777907,38.1517454 4.27069645,38.1346057 4.27069645,38.1003257 C4.27069645,37.9917723 4.25788449,37.9032169 4.23226018,37.8346569 C4.20663588,37.7660969 4.1767413,37.7132493 4.14257556,37.6761127 C4.10840982,37.638976 4.07282103,37.6146947 4.03580815,37.603268 C3.99879526,37.5918413 3.96605358,37.5861281 3.93758213,37.5861281 L2.49408673,37.5861281 L2.49408673,42.7281038 C2.49408673,42.7566704 2.49978093,42.7895216 2.51116951,42.8266583 C2.52255809,42.863795 2.54675847,42.8995028 2.58377135,42.9337828 C2.62078424,42.9680628 2.67345564,42.996629 2.74178712,43.0194824 C2.81011861,43.0423357 2.89837878,43.0537622 3.0065703,43.0537622 C3.04073604,43.0537622 3.05781866,43.070902 3.05781866,43.105182 L3.05781866,43.2508713 C3.05781866,43.2851513 3.04073604,43.302291 3.0065703,43.302291 L1.62286465,43.302291 C1.58869891,43.302291 1.57161629,43.2851513 1.57161629,43.2508713 L1.57161629,43.105182 C1.57161629,43.070902 1.58869891,43.0537622 1.62286465,43.0537622 C1.73105617,43.0537622 1.81931635,43.0423357 1.88764783,43.0194824 C1.95597932,42.996629 2.00865071,42.9680628 2.0456636,42.9337828 C2.08267649,42.8995028 2.10687686,42.863795 2.11826544,42.8266583 C2.12965402,42.7895216 2.13534823,42.7566704 2.13534823,42.7281038 L2.13534823,37.5861281 Z M10.1386334,40.6713135 C10.1386334,40.4656334 10.1058917,40.2742396 10.0404074,40.0971262 C9.97492305,39.9200128 9.88381577,39.7643268 9.76708282,39.6300634 C9.65034987,39.4958 9.51084184,39.3901049 9.34855457,39.3129749 C9.18626729,39.2358449 9.00547628,39.1972805 8.80617612,39.1972805 C8.60687595,39.1972805 8.41469653,39.2358449 8.2296321,39.3129749 C8.04456766,39.3901049 7.88085926,39.4958 7.738502,39.6300634 C7.59614474,39.7643268 7.48226064,39.9200128 7.39684629,40.0971262 C7.31143193,40.2742396 7.26872539,40.4656334 7.26872539,40.6713135 L7.26872539,42.6938239 C7.26872539,42.7109639 7.27014895,42.7409585 7.27299609,42.7838085 C7.27584324,42.8266585 7.29007875,42.8695079 7.31570305,42.9123579 C7.34132736,42.9552079 7.37833969,42.992344 7.42674116,43.0237674 C7.47514263,43.0551907 7.54774374,43.0709021 7.64454668,43.0709021 C7.67871242,43.0709021 7.69579504,43.0880419 7.69579504,43.1223219 L7.69579504,43.2508713 C7.69579504,43.2851513 7.67871242,43.302291 7.64454668,43.302291 L6.56833118,43.302291 C6.53416543,43.302291 6.51708282,43.2851513 6.51708282,43.2508713 L6.51708282,43.1223219 C6.51708282,43.0880419 6.53416543,43.0709021 6.56833118,43.0709021 C6.65943982,43.0709021 6.73061738,43.0551907 6.781866,43.0237674 C6.83311461,42.992344 6.8715505,42.9552079 6.8971748,42.9123579 C6.92279911,42.8695079 6.93703462,42.8266585 6.93988177,42.7838085 C6.94272891,42.7409585 6.94415246,42.7109639 6.94415246,42.6938239 L6.94415246,37.6289779 C6.94415246,37.6118379 6.94272891,37.5818433 6.93988177,37.5389933 C6.93703462,37.4961433 6.92279911,37.4532939 6.8971748,37.4104439 C6.8715505,37.3675939 6.83311461,37.3304578 6.781866,37.2990345 C6.73061738,37.2676111 6.65943982,37.2518997 6.56833118,37.2518997 C6.53416543,37.2518997 6.51708282,37.2347599 6.51708282,37.2004799 L6.51708282,37.0719305 C6.51708282,37.0376505 6.53416543,37.0205108 6.56833118,37.0205108 L7.21747704,37.0205108 C7.25164278,37.0205108 7.26872539,37.0376505 7.26872539,37.0719305 L7.26872539,39.7029081 C7.34275117,39.582928 7.4381291,39.472948 7.55486206,39.3729646 C7.67159501,39.2729813 7.79829107,39.1887108 7.93495404,39.1201508 C8.07161701,39.0515908 8.21681924,38.9987433 8.37056508,38.9616066 C8.52431092,38.9244699 8.67805445,38.9059018 8.8318003,38.9059018 C9.07096049,38.9059018 9.29018738,38.9516078 9.48948755,39.0430212 C9.68878771,39.1344346 9.86103741,39.260126 10.0062418,39.4200994 C10.1514462,39.5800728 10.2639068,39.7671817 10.3436268,39.9814318 C10.4233469,40.1956818 10.4632063,40.4256401 10.4632063,40.6713135 L10.4632063,42.6938239 C10.4632063,42.7109639 10.4646299,42.7409585 10.467477,42.7838085 C10.4703242,42.8266585 10.4845597,42.8695079 10.510184,42.9123579 C10.5358083,42.9552079 10.5728206,42.992344 10.6212221,43.0237674 C10.6696236,43.0551907 10.7422247,43.0709021 10.8390276,43.0709021 C10.8731934,43.0709021 10.890276,43.0880419 10.890276,43.1223219 L10.890276,43.2508713 C10.890276,43.2851513 10.8731934,43.302291 10.8390276,43.302291 L9.76281212,43.302291 C9.72864638,43.302291 9.71156376,43.2851513 9.71156376,43.2508713 L9.71156376,43.1223219 C9.71156376,43.0880419 9.72864638,43.0709021 9.76281212,43.0709021 C9.85392077,43.0709021 9.92509833,43.0551907 9.97634694,43.0237674 C10.0275956,42.992344 10.0660314,42.9552079 10.0916557,42.9123579 C10.1172801,42.8695079 10.1315156,42.8266585 10.1343627,42.7838085 C10.1372099,42.7409585 10.1386334,42.7109639 10.1386334,42.6938239 L10.1386334,40.6713135 Z M13.5124836,41.2283609 C13.5238722,41.4797476 13.5708494,41.7139908 13.6534166,41.9310975 C13.7359838,42.1482043 13.8470208,42.3367415 13.9865309,42.4967148 C14.1260411,42.6566882 14.2940201,42.7823797 14.4904731,42.8737931 C14.6869261,42.9652064 14.9047295,43.0109124 15.1438897,43.0109124 C15.4001328,43.0109124 15.6449836,42.9537799 15.8784495,42.8395132 C16.1119154,42.7252465 16.3026712,42.5509924 16.4507228,42.3167457 C16.4678057,42.2938924 16.4905825,42.2910357 16.5190539,42.3081757 L16.6215507,42.3767354 C16.6614107,42.4053021 16.6671049,42.4395816 16.6386334,42.4795749 C16.4564161,42.753815 16.2386128,42.9666335 15.9852169,43.1180369 C15.731821,43.2694403 15.4513814,43.3451408 15.1438897,43.3451408 C14.8534809,43.3451408 14.5887003,43.28658 14.3495401,43.1694567 C14.1103799,43.0523333 13.903965,42.8937906 13.7302892,42.6938239 C13.5566133,42.4938572 13.4227995,42.259614 13.3288437,41.9910872 C13.2348879,41.7225605 13.1879107,41.4340414 13.1879107,41.1255213 C13.1879107,40.8170013 13.2334643,40.5284822 13.324573,40.2599554 C13.4156816,39.9914287 13.5438013,39.7571855 13.7089357,39.5572188 C13.8740701,39.357252 14.0747908,39.1987094 14.3111039,39.081586 C14.5474169,38.9644626 14.8107739,38.9059018 15.1011827,38.9059018 C15.3915915,38.9059018 15.6549485,38.9644626 15.8912616,39.081586 C16.1275746,39.1987094 16.3282953,39.357252 16.4934298,39.5572188 C16.6585642,39.7571855 16.7866838,39.9914287 16.8777924,40.2599554 C16.9689011,40.5284822 17.0144547,40.8170013 17.0144547,41.1255213 C17.0144547,41.171228 17.0087605,41.1997943 16.9973719,41.2112209 C16.9859834,41.2226476 16.9575123,41.2283609 16.911958,41.2283609 L13.5124836,41.2283609 Z M15.1011827,39.2401303 C14.8677168,39.2401303 14.6584548,39.2844079 14.4733903,39.3729646 C14.2883259,39.4615213 14.1274646,39.5829279 13.9908016,39.7371879 C13.8541387,39.891448 13.7459488,40.0714153 13.6662287,40.2770954 C13.5865086,40.4827754 13.5381079,40.7055921 13.521025,40.9455522 L16.6813404,40.9455522 C16.6642575,40.7055921 16.6158568,40.4827754 16.5361367,40.2770954 C16.4564167,40.0714153 16.3482268,39.891448 16.2115638,39.7371879 C16.0749008,39.5829279 15.9140395,39.4615213 15.7289751,39.3729646 C15.5439107,39.2844079 15.3346486,39.2401303 15.1011827,39.2401303 Z M24.0013142,37.2690396 C24.0354799,37.2690396 24.0525625,37.2861793 24.0525625,37.3204593 L24.0525625,37.4661487 C24.0525625,37.5004287 24.0354799,37.5175684 24.0013142,37.5175684 C23.8931227,37.5175684 23.806286,37.5304232 23.7408017,37.5561332 C23.6753174,37.5818432 23.6240695,37.6118378 23.5870566,37.6461178 C23.5500437,37.6803978 23.5244198,37.7161056 23.5101841,37.7532423 C23.4959484,37.790379 23.4888306,37.8232302 23.4888306,37.8517968 L23.4888306,41.0826715 C23.4888306,41.3569116 23.5386549,41.6140078 23.638305,41.8539679 C23.7379551,42.093928 23.8760395,42.3038899 24.0525625,42.4838599 C24.2290856,42.66383 24.4340769,42.8052329 24.6675428,42.9080729 C24.9010087,43.0109129 25.1515538,43.0623322 25.4191854,43.0623322 C25.6868171,43.0623322 25.9387856,43.0109129 26.1750987,42.9080729 C26.4114117,42.8052329 26.6164031,42.66383 26.790079,42.4838599 C26.9637548,42.3038899 27.1018393,42.093928 27.2043365,41.8539679 C27.3068338,41.6140078 27.3580816,41.3569116 27.3580816,41.0826715 L27.3580816,37.8517968 C27.3580816,37.8346568 27.3552345,37.8075189 27.3495402,37.7703822 C27.3438459,37.7332455 27.3253398,37.6961094 27.2940212,37.6589727 C27.2627026,37.6218361 27.2114547,37.5889849 27.1402761,37.5604182 C27.0690975,37.5318515 26.9708724,37.5175684 26.845598,37.5175684 C26.8114323,37.5175684 26.7943497,37.5004287 26.7943497,37.4661487 L26.7943497,37.3204593 C26.7943497,37.2861793 26.8114323,37.2690396 26.845598,37.2690396 L28.2293037,37.2690396 C28.2634694,37.2690396 28.280552,37.2861793 28.280552,37.3204593 L28.280552,37.4661487 C28.280552,37.5004287 28.2634694,37.5175684 28.2293037,37.5175684 C28.1211122,37.5175684 28.0342755,37.5304232 27.9687912,37.5561332 C27.9033069,37.5818432 27.852059,37.6118378 27.8150461,37.6461178 C27.7780332,37.6803978 27.7524093,37.7161056 27.7381736,37.7532423 C27.7239379,37.790379 27.7168201,37.8232302 27.7168201,37.8517968 L27.7168201,41.1083814 C27.7168201,41.4283282 27.657031,41.7268454 27.5374509,42.0039422 C27.4178708,42.2810389 27.2541624,42.523852 27.0463208,42.7323887 C26.8384792,42.9409255 26.5950519,43.1051814 26.3160317,43.2251614 C26.0370114,43.3451414 25.7380657,43.4051305 25.4191854,43.4051305 C25.1003052,43.4051305 24.8027829,43.3451414 24.5266099,43.2251614 C24.2504368,43.1051814 24.0084331,42.9409255 23.8005915,42.7323887 C23.5927499,42.523852 23.4290415,42.2810389 23.3094614,42.0039422 C23.1898813,41.7268454 23.1300921,41.4283282 23.1300921,41.1083814 L23.1300921,37.8517968 C23.1300921,37.8232302 23.1229744,37.790379 23.1087386,37.7532423 C23.0945029,37.7161056 23.068879,37.6803978 23.0318661,37.6461178 C22.9948532,37.6118378 22.9436054,37.5818432 22.878121,37.5561332 C22.8126367,37.5304232 22.7258001,37.5175684 22.6176085,37.5175684 C22.5834428,37.5175684 22.5663602,37.5004287 22.5663602,37.4661487 L22.5663602,37.3204593 C22.5663602,37.2861793 22.5834428,37.2690396 22.6176085,37.2690396 L24.0013142,37.2690396 Z M30.7063077,39.5572188 C30.7063077,39.5400788 30.7048841,39.5100842 30.702037,39.4672342 C30.6991898,39.4243842 30.6849543,39.3815348 30.65933,39.3386848 C30.6337057,39.2958348 30.5952698,39.2586987 30.5440212,39.2272753 C30.4927726,39.195852 30.421595,39.1801405 30.3304864,39.1801405 C30.2963206,39.1801405 30.279238,39.1630008 30.279238,39.1287208 L30.279238,39.0001714 C30.279238,38.9658914 30.2963206,38.9487516 30.3304864,38.9487516 L30.8942183,38.9487516 C30.928384,38.9487516 30.9483138,38.9658914 30.954008,39.0001714 L31.0223392,39.5400788 C31.1874736,39.3458255 31.4067005,39.1915677 31.6800264,39.077301 C31.9533524,38.9630343 32.2295213,38.9059018 32.5085416,38.9059018 C32.7590903,38.9059018 32.9897056,38.9416097 33.2003944,39.0130263 C33.4110831,39.084443 33.5932977,39.1901381 33.7470435,39.3301148 C33.9007894,39.4700915 34.0203677,39.6443456 34.105782,39.8528824 C34.1911964,40.0614191 34.2339029,40.3056605 34.2339029,40.5856139 L34.2339029,42.7538136 C34.2339029,42.7823803 34.2395971,42.8152315 34.2509857,42.8523682 C34.2623743,42.8895048 34.2808805,42.9237843 34.3065048,42.9552077 C34.3321291,42.986631 34.3691414,43.013769 34.4175429,43.0366223 C34.4659443,43.0594756 34.5300041,43.0709021 34.6097242,43.0709021 C34.64389,43.0709021 34.6609726,43.0880419 34.6609726,43.1223219 L34.6609726,43.2508713 C34.6609726,43.2851513 34.64389,43.302291 34.6097242,43.302291 L33.5335087,43.302291 C33.499343,43.302291 33.4822603,43.2851513 33.4822603,43.2508713 L33.4822603,43.1223219 C33.4822603,43.0880419 33.499343,43.0709021 33.5335087,43.0709021 C33.6872545,43.0709021 33.7869031,43.033766 33.8324575,42.9594927 C33.8780118,42.8852193 33.9036357,42.8166603 33.90933,42.7538136 L33.90933,40.5941839 C33.90933,40.3656505 33.8737412,40.1628301 33.8025626,39.9857167 C33.731384,39.8086034 33.6345825,39.6629155 33.5121552,39.5486488 C33.389728,39.4343821 33.2431022,39.3472551 33.0722735,39.287265 C32.9014448,39.227275 32.713536,39.1972805 32.5085416,39.1972805 C32.3547957,39.1972805 32.2024757,39.2201335 32.051577,39.2658401 C31.9006783,39.3115468 31.7583232,39.3743926 31.6245074,39.4543792 C31.4906916,39.5343659 31.3725368,39.6300629 31.2700396,39.7414729 C31.1675424,39.8528829 31.0878235,39.9771461 31.0308806,40.1142661 L31.0308806,42.6938239 C31.0308806,42.7109639 31.0323041,42.7409585 31.0351513,42.7838085 C31.0379984,42.8266585 31.0522339,42.8695079 31.0778582,42.9123579 C31.1034826,42.9552079 31.1404949,42.992344 31.1888964,43.0237674 C31.2372978,43.0551907 31.3098989,43.0709021 31.4067019,43.0709021 C31.4408676,43.0709021 31.4579502,43.0880419 31.4579502,43.1223219 L31.4579502,43.2508713 C31.4579502,43.2851513 31.4408676,43.302291 31.4067019,43.302291 L30.3304864,43.302291 C30.2963206,43.302291 30.279238,43.2851513 30.279238,43.2508713 L30.279238,43.1223219 C30.279238,43.0880419 30.2963206,43.0709021 30.3304864,43.0709021 C30.421595,43.0709021 30.4927726,43.0551907 30.5440212,43.0237674 C30.5952698,42.992344 30.6337057,42.9552079 30.65933,42.9123579 C30.6849543,42.8695079 30.6991898,42.8266585 30.702037,42.7838085 C30.7048841,42.7409585 30.7063077,42.7109639 30.7063077,42.6938239 L30.7063077,39.5572188 Z M37.2233905,39.497229 C37.2176962,39.4400957 37.1920723,39.372965 37.1465179,39.295835 C37.1009636,39.218705 37.001315,39.1801405 36.8475692,39.1801405 C36.8134034,39.1801405 36.7963208,39.1630008 36.7963208,39.1287208 L36.7963208,39.0001714 C36.7963208,38.9658914 36.8134034,38.9487516 36.8475692,38.9487516 L37.496715,38.9487516 C37.5308808,38.9487516 37.5479634,38.9658914 37.5479634,39.0001714 L37.5479634,42.7109638 C37.5479634,42.7395305 37.5536576,42.7752383 37.5650462,42.8180883 C37.5764348,42.8609383 37.5949409,42.9009311 37.6205652,42.9380678 C37.6461895,42.9752044 37.6832019,43.0066273 37.7316033,43.0323373 C37.7800048,43.0580473 37.8440646,43.0709021 37.9237847,43.0709021 C37.9579504,43.0709021 37.975033,43.0880419 37.975033,43.1223219 L37.975033,43.2508713 C37.975033,43.2851513 37.9579504,43.302291 37.9237847,43.302291 L36.8475692,43.302291 C36.8134034,43.302291 36.7963208,43.2851513 36.7963208,43.2508713 L36.7963208,43.1223219 C36.7963208,43.0880419 36.8134034,43.0709021 36.8475692,43.0709021 C36.9386778,43.0709021 37.0098554,43.0551907 37.061104,43.0237674 C37.1123526,42.992344 37.1507885,42.9552079 37.1764128,42.9123579 C37.2020371,42.8695079 37.2162726,42.8266585 37.2191198,42.7838085 C37.2219669,42.7409585 37.2233905,42.7109639 37.2233905,42.6938239 L37.2233905,39.497229 Z M37.2233905,37.3204593 C37.2233905,37.2861793 37.2404731,37.2690396 37.2746388,37.2690396 L37.496715,37.2690396 C37.5308808,37.2690396 37.5479634,37.2861793 37.5479634,37.3204593 L37.5479634,37.8775067 C37.5479634,37.9117867 37.5308808,37.9289265 37.496715,37.9289265 L37.2746388,37.9289265 C37.2404731,37.9289265 37.2233905,37.9117867 37.2233905,37.8775067 L37.2233905,37.3204593 Z M40.7936927,38.9487516 C40.8278585,38.9487516 40.8449411,38.9658914 40.8449411,39.0001714 L40.8449411,39.1287208 C40.8449411,39.1630008 40.8278585,39.1801405 40.7936927,39.1801405 C40.7253613,39.1801405 40.6598779,39.1872821 40.5972407,39.2015654 C40.5346035,39.2158488 40.5089796,39.2372735 40.5203682,39.2658401 L41.9894877,42.9166429 L43.4586073,39.2658401 C43.4699959,39.2372735 43.4429484,39.2158488 43.3774641,39.2015654 C43.3119798,39.1872821 43.2479199,39.1801405 43.1852828,39.1801405 C43.151117,39.1801405 43.1340344,39.1630008 43.1340344,39.1287208 L43.1340344,39.0001714 C43.1340344,38.9658914 43.151117,38.9487516 43.1852828,38.9487516 L44.0906704,38.9487516 C44.1248361,38.9487516 44.1419188,38.9658914 44.1419188,39.0001714 L44.1419188,39.1287208 C44.1419188,39.1630008 44.1248361,39.1801405 44.0906704,39.1801405 C43.9995618,39.1801405 43.9255371,39.195852 43.8685942,39.2272753 C43.8116513,39.2586987 43.7746389,39.2944065 43.7575561,39.3343998 L42.168857,43.2508713 C42.1574684,43.2851513 42.1346916,43.302291 42.1005259,43.302291 L41.8784496,43.302291 C41.8442839,43.302291 41.8215071,43.2851513 41.8101185,43.2508713 L40.2214194,39.3429698 C40.2043365,39.2972631 40.1673242,39.2586987 40.1103813,39.2272753 C40.0534384,39.195852 39.9794137,39.1801405 39.8883051,39.1801405 C39.8541393,39.1801405 39.8370567,39.1630008 39.8370567,39.1287208 L39.8370567,39.0001714 C39.8370567,38.9658914 39.8541393,38.9487516 39.8883051,38.9487516 L40.7936927,38.9487516 Z M46.4053879,41.2283609 C46.4167765,41.4797476 46.4637537,41.7139908 46.5463209,41.9310975 C46.6288881,42.1482043 46.7399251,42.3367415 46.8794352,42.4967148 C47.0189453,42.6566882 47.1869244,42.7823797 47.3833774,42.8737931 C47.5798304,42.9652064 47.7976338,43.0109124 48.036794,43.0109124 C48.293037,43.0109124 48.5378878,42.9537799 48.7713537,42.8395132 C49.0048196,42.7252465 49.1955755,42.5509924 49.3436271,42.3167457 C49.3607099,42.2938924 49.3834868,42.2910357 49.4119582,42.3081757 L49.5144549,42.3767354 C49.554315,42.4053021 49.5600092,42.4395816 49.5315377,42.4795749 C49.3493204,42.753815 49.1315171,42.9666335 48.8781212,43.1180369 C48.6247252,43.2694403 48.3442856,43.3451408 48.036794,43.3451408 C47.7463851,43.3451408 47.4816046,43.28658 47.2424444,43.1694567 C47.0032842,43.0523333 46.7968693,42.8937906 46.6231934,42.6938239 C46.4495176,42.4938572 46.3157038,42.259614 46.221748,41.9910872 C46.1277922,41.7225605 46.080815,41.4340414 46.080815,41.1255213 C46.080815,40.8170013 46.1263686,40.5284822 46.2174773,40.2599554 C46.3085859,39.9914287 46.4367055,39.7571855 46.6018399,39.5572188 C46.7669744,39.357252 46.9676951,39.1987094 47.2040081,39.081586 C47.4403212,38.9644626 47.7036782,38.9059018 47.994087,38.9059018 C48.2844958,38.9059018 48.5478528,38.9644626 48.7841658,39.081586 C49.0204789,39.1987094 49.2211996,39.357252 49.386334,39.5572188 C49.5514685,39.7571855 49.6795881,39.9914287 49.7706967,40.2599554 C49.8618054,40.5284822 49.907359,40.8170013 49.907359,41.1255213 C49.907359,41.171228 49.9016648,41.1997943 49.8902762,41.2112209 C49.8788876,41.2226476 49.8504166,41.2283609 49.8048623,41.2283609 L46.4053879,41.2283609 Z M47.994087,39.2401303 C47.7606211,39.2401303 47.551359,39.2844079 47.3662946,39.3729646 C47.1812302,39.4615213 47.0203689,39.5829279 46.8837059,39.7371879 C46.7470429,39.891448 46.638853,40.0714153 46.559133,40.2770954 C46.4794129,40.4827754 46.4310122,40.7055921 46.4139293,40.9455522 L49.5742447,40.9455522 C49.5571618,40.7055921 49.5087611,40.4827754 49.429041,40.2770954 C49.3493209,40.0714153 49.241131,39.891448 49.1044681,39.7371879 C48.9678051,39.5829279 48.8069438,39.4615213 48.6218794,39.3729646 C48.4368149,39.2844079 48.2275529,39.2401303 47.994087,39.2401303 Z M52.6064392,39.497229 C52.6064392,39.4400957 52.5822388,39.372965 52.5338373,39.295835 C52.4854359,39.218705 52.3843637,39.1801405 52.2306179,39.1801405 C52.1964522,39.1801405 52.1793695,39.1630008 52.1793695,39.1287208 L52.1793695,39.0001714 C52.1793695,38.9658914 52.1964522,38.9487516 52.2306179,38.9487516 L52.8797638,38.9487516 C52.9139295,38.9487516 52.9310121,38.9658914 52.9310121,39.0001714 L52.9310121,39.6429184 C53.0961465,39.4200983 53.2997144,39.2415593 53.5417217,39.1072959 C53.7837291,38.9730325 54.0584744,38.9059018 54.3659661,38.9059018 C54.4399919,38.9059018 54.5040517,38.9159 54.5581475,38.9358967 C54.6122432,38.9558934 54.6392907,39.0144542 54.6392907,39.1115809 L54.6392907,39.497229 C54.6392907,39.5315091 54.6222081,39.5486488 54.5880423,39.5486488 L54.4428387,39.5486488 C54.4086729,39.5486488 54.3915903,39.5315091 54.3915903,39.497229 C54.3915903,39.4172424 54.3844726,39.3472551 54.3702368,39.287265 C54.3560011,39.227275 54.3261065,39.1972805 54.2805522,39.1972805 C54.1097235,39.1972805 53.943168,39.2358449 53.7808807,39.3129749 C53.6185934,39.3901049 53.4748148,39.4929434 53.3495404,39.6214935 C53.224266,39.7500435 53.1231938,39.9000163 53.0463209,40.0714163 C52.969448,40.2428164 52.9310121,40.4227837 52.9310121,40.6113238 L52.9310121,42.7538136 C52.9310121,42.7709536 52.9324357,42.7980916 52.9352828,42.8352282 C52.93813,42.8723649 52.9523655,42.9080727 52.9779898,42.9423527 C53.0036141,42.9766327 53.0406264,43.0066273 53.0890279,43.0323373 C53.1374294,43.0580473 53.2100305,43.0709021 53.3068334,43.0709021 C53.3409992,43.0709021 53.3580818,43.0880419 53.3580818,43.1223219 L53.3580818,43.2508713 C53.3580818,43.2851513 53.3409992,43.302291 53.3068334,43.302291 L52.2306179,43.302291 C52.1964522,43.302291 52.1793695,43.2851513 52.1793695,43.2508713 L52.1793695,43.1223219 C52.1793695,43.0880419 52.1964522,43.0709021 52.2306179,43.0709021 C52.3843637,43.0709021 52.4854359,43.033766 52.5338373,42.9594927 C52.5822388,42.8852193 52.6064392,42.8166603 52.6064392,42.7538136 L52.6064392,39.497229 Z M58.1583446,43.3451408 C57.6686356,43.3451408 57.2985123,43.2337325 57.0479635,43.0109124 C56.7974148,42.7880924 56.6294357,42.4910034 56.5440214,42.1196366 C56.5326328,42.0853566 56.5440212,42.0625036 56.5781869,42.051077 L56.689225,42.0253671 C56.7233908,42.0139404 56.7461676,42.0253669 56.7575562,42.0596469 C56.8543591,42.368167 57.0152204,42.6066952 57.2401449,42.7752385 C57.4650693,42.9437819 57.7568973,43.0280523 58.1156376,43.0280523 C58.2807721,43.0280523 58.4373627,43.008056 58.5854143,42.9680626 C58.7334658,42.9280693 58.863009,42.8723651 58.9740476,42.8009484 C59.0850863,42.7295317 59.1733465,42.643833 59.2388308,42.5438496 C59.3043152,42.4438663 59.3370568,42.3338862 59.3370568,42.2139062 C59.3370568,41.9910861 59.2715735,41.8182603 59.1406048,41.6954236 C59.0096361,41.5725869 58.8445042,41.4711768 58.645204,41.3911901 C58.4459038,41.3112034 58.2309476,41.2412161 58.0003288,41.1812261 C57.7697101,41.1212361 57.5547538,41.0441072 57.3554537,40.9498372 C57.1561535,40.8555671 56.9910216,40.7327323 56.8600529,40.5813289 C56.7290842,40.4299255 56.6636009,40.2199636 56.6636009,39.9514369 C56.6636009,39.8028902 56.7006132,39.6643439 56.774639,39.5357939 C56.8486647,39.4072438 56.9511604,39.2958355 57.0821291,39.2015654 C57.2130978,39.1072954 57.3682649,39.0344515 57.547635,38.9830315 C57.7270052,38.9316115 57.9248788,38.9059018 58.1412618,38.9059018 C58.517085,38.9059018 58.8302663,38.9930289 59.080815,39.1672856 C59.3313638,39.3415423 59.5107313,39.5515042 59.6189228,39.7971776 C59.6417,39.8314576 59.6303115,39.8543106 59.5847572,39.8657373 L59.4566363,39.9000171 C59.4224706,39.9000171 59.4025409,39.8914473 59.3968466,39.8743073 C59.3000436,39.7029072 59.143453,39.5472212 58.92707,39.4072445 C58.7106869,39.2672678 58.4544477,39.1972805 58.1583446,39.1972805 C58.0045988,39.1972805 57.857973,39.2158485 57.7184629,39.2529852 C57.5789528,39.2901219 57.4551038,39.3429694 57.3469123,39.4115295 C57.2387208,39.4800895 57.1518841,39.5615033 57.0863998,39.6557733 C57.0209155,39.7500433 56.9881738,39.8514535 56.9881738,39.9600069 C56.9881738,40.1771136 57.0550807,40.3456544 57.1888965,40.4656345 C57.3227123,40.5856145 57.4878443,40.684168 57.6842973,40.7612981 C57.8807503,40.8384281 58.0957066,40.9069871 58.3291725,40.9669771 C58.5626384,41.0269671 58.7775946,41.104096 58.9740476,41.198366 C59.1705007,41.292636 59.3356326,41.4168992 59.4694484,41.5711592 C59.6032642,41.7254193 59.6701712,41.9368095 59.6701712,42.2053362 C59.6701712,42.3824496 59.6288882,42.5409923 59.546321,42.680969 C59.4637537,42.8209457 59.3527167,42.9409239 59.2132066,43.0409073 C59.0736965,43.1408906 58.9128352,43.2165912 58.7306179,43.2680112 C58.5484006,43.3194312 58.3576448,43.3451408 58.1583446,43.3451408 Z M62.3863341,41.2283609 C62.3977227,41.4797476 62.4446999,41.7139908 62.5272671,41.9310975 C62.6098343,42.1482043 62.7208713,42.3367415 62.8603814,42.4967148 C62.9998916,42.6566882 63.1678706,42.7823797 63.3643236,42.8737931 C63.5607766,42.9652064 63.77858,43.0109124 64.0177402,43.0109124 C64.2739832,43.0109124 64.5188341,42.9537799 64.7523,42.8395132 C64.9857659,42.7252465 65.1765217,42.5509924 65.3245733,42.3167457 C65.3416562,42.2938924 65.364433,42.2910357 65.3929044,42.3081757 L65.4954011,42.3767354 C65.5352612,42.4053021 65.5409554,42.4395816 65.5124839,42.4795749 C65.3302666,42.753815 65.1124633,42.9666335 64.8590674,43.1180369 C64.6056715,43.2694403 64.3252319,43.3451408 64.0177402,43.3451408 C63.7273314,43.3451408 63.4625508,43.28658 63.2233906,43.1694567 C62.9842304,43.0523333 62.7778155,42.8937906 62.6041396,42.6938239 C62.4304638,42.4938572 62.29665,42.259614 62.2026942,41.9910872 C62.1087384,41.7225605 62.0617612,41.4340414 62.0617612,41.1255213 C62.0617612,40.8170013 62.1073148,40.5284822 62.1984235,40.2599554 C62.2895321,39.9914287 62.4176517,39.7571855 62.5827862,39.5572188 C62.7479206,39.357252 62.9486413,39.1987094 63.1849544,39.081586 C63.4212674,38.9644626 63.6846244,38.9059018 63.9750332,38.9059018 C64.265442,38.9059018 64.528799,38.9644626 64.7651121,39.081586 C65.0014251,39.1987094 65.2021458,39.357252 65.3672803,39.5572188 C65.5324147,39.7571855 65.6605343,39.9914287 65.7516429,40.2599554 C65.8427516,40.5284822 65.8883052,40.8170013 65.8883052,41.1255213 C65.8883052,41.171228 65.882611,41.1997943 65.8712224,41.2112209 C65.8598339,41.2226476 65.8313628,41.2283609 65.7858085,41.2283609 L62.3863341,41.2283609 Z M63.9750332,39.2401303 C63.7415673,39.2401303 63.5323053,39.2844079 63.3472408,39.3729646 C63.1621764,39.4615213 63.0013151,39.5829279 62.8646521,39.7371879 C62.7279892,39.891448 62.6197993,40.0714153 62.5400792,40.2770954 C62.4603591,40.4827754 62.4119584,40.7055921 62.3948755,40.9455522 L65.5551909,40.9455522 C65.538108,40.7055921 65.4897073,40.4827754 65.4099872,40.2770954 C65.3302672,40.0714153 65.2220773,39.891448 65.0854143,39.7371879 C64.9487513,39.5829279 64.78789,39.4615213 64.6028256,39.3729646 C64.4177612,39.2844079 64.2084991,39.2401303 63.9750332,39.2401303 Z M72.0722737,41.1255213 C72.0722737,41.3883347 72.1178274,41.6340045 72.208936,41.8625379 C72.3000447,42.0910712 72.4253172,42.291035 72.5847573,42.462435 C72.7441975,42.6338351 72.9306827,42.7680964 73.1442186,42.8652231 C73.3577544,42.9623498 73.5840991,43.0109124 73.8232593,43.0109124 C74.0624195,43.0109124 74.2887641,42.9623498 74.5023,42.8652231 C74.7158359,42.7680964 74.9023211,42.6338351 75.0617613,42.462435 C75.2212014,42.291035 75.3464739,42.0910712 75.4375826,41.8625379 C75.5286912,41.6340045 75.5742448,41.3883347 75.5742448,41.1255213 C75.5742448,40.8684213 75.5286912,40.6256082 75.4375826,40.3970748 C75.3464739,40.1685414 75.2212014,39.9685777 75.0617613,39.7971776 C74.9023211,39.6257776 74.7158359,39.4900879 74.5023,39.3901046 C74.2887641,39.2901212 74.0624195,39.2401303 73.8232593,39.2401303 C73.5840991,39.2401303 73.3577544,39.2901212 73.1442186,39.3901046 C72.9306827,39.4900879 72.7441975,39.6257776 72.5847573,39.7971776 C72.4253172,39.9685777 72.3000447,40.1685414 72.208936,40.3970748 C72.1178274,40.6256082 72.0722737,40.8684213 72.0722737,41.1255213 Z M71.7477008,41.1255213 C71.7477008,40.8170013 71.8017958,40.5284822 71.9099873,40.2599554 C72.0181788,39.9914287 72.1662281,39.7571855 72.3541397,39.5572188 C72.5420513,39.357252 72.7627017,39.1987094 73.0160977,39.081586 C73.2694936,38.9644626 73.5385448,38.9059018 73.8232593,38.9059018 C74.1079738,38.9059018 74.377025,38.9644626 74.6304209,39.081586 C74.8838168,39.1987094 75.1044673,39.357252 75.2923789,39.5572188 C75.4802905,39.7571855 75.6283398,39.9914287 75.7365313,40.2599554 C75.8447228,40.5284822 75.8988178,40.8170013 75.8988178,41.1255213 C75.8988178,41.4340414 75.8447228,41.7225605 75.7365313,41.9910872 C75.6283398,42.259614 75.4802905,42.4938572 75.2923789,42.6938239 C75.1044673,42.8937906 74.8838168,43.0523333 74.6304209,43.1694567 C74.377025,43.28658 74.1079738,43.3451408 73.8232593,43.3451408 C73.5385448,43.3451408 73.2694936,43.28658 73.0160977,43.1694567 C72.7627017,43.0523333 72.5420513,42.8937906 72.3541397,42.6938239 C72.1662281,42.4938572 72.0181788,42.259614 71.9099873,41.9910872 C71.8017958,41.7225605 71.7477008,41.4340414 71.7477008,41.1255213 Z M78.8455984,39.2315603 L78.2477009,39.2315603 C78.2135351,39.2315603 78.1964525,39.2144206 78.1964525,39.1801405 L78.1964525,39.1030109 C78.1964525,39.0687309 78.2135351,39.0487345 78.2477009,39.0430212 L78.8455984,38.9487516 L78.8455984,38.2203051 C78.8455984,37.8203717 78.9580589,37.5147128 79.1829834,37.3033194 C79.4079078,37.091926 79.7111243,36.9862309 80.0926417,36.9862309 C80.2406933,36.9862309 80.3802013,37.0090839 80.51117,37.0547906 C80.55103,37.0662173 80.5595713,37.0919269 80.5367941,37.1319202 L80.4855458,37.2090499 C80.4684629,37.2319032 80.4485332,37.2404731 80.425756,37.2347598 C80.3232588,37.2004797 80.2207631,37.18334 80.1182659,37.18334 C79.8620228,37.18334 79.6399488,37.2733237 79.4520372,37.4532937 C79.2641257,37.6332638 79.1701713,37.8889317 79.1701713,38.2203051 L79.1701713,38.9487516 L80.4172146,38.9487516 C80.4513804,38.9487516 80.468463,38.9658914 80.468463,39.0001714 L80.468463,39.1801405 C80.468463,39.2144206 80.4513804,39.2315603 80.4172146,39.2315603 L79.1701713,39.2315603 L79.1701713,42.7538136 C79.1701713,42.7709536 79.1715948,42.7980916 79.174442,42.8352282 C79.1772891,42.8723649 79.1915246,42.9080727 79.2171489,42.9423527 C79.2427733,42.9766327 79.2840562,43.0066273 79.3409991,43.0323373 C79.397942,43.0580473 79.4776609,43.0709021 79.5801581,43.0709021 C79.6143239,43.0709021 79.6314065,43.0880419 79.6314065,43.1223219 L79.6314065,43.2508713 C79.6314065,43.2851513 79.6143239,43.302291 79.5801581,43.302291 L78.4697771,43.302291 C78.4356113,43.302291 78.4185287,43.2851513 78.4185287,43.2508713 L78.4185287,43.1223219 C78.4185287,43.0880419 78.4356113,43.0709021 78.4697771,43.0709021 C78.6235229,43.0709021 78.7231715,43.033766 78.7687258,42.9594927 C78.8142801,42.8852193 78.8399041,42.8166603 78.8455984,42.7538136 L78.8455984,39.2315603 Z M86.7463869,42.9852025 L89.3515117,42.9852025 C89.3799831,42.9852025 89.4127248,42.9794893 89.4497377,42.9680626 C89.4867506,42.9566359 89.5223394,42.9323546 89.5565051,42.895218 C89.5906709,42.8580813 89.6205654,42.8052337 89.6461897,42.7366737 C89.6718141,42.6681137 89.684626,42.5795583 89.684626,42.471005 C89.684626,42.436725 89.7017086,42.4195852 89.7358744,42.4195852 L89.8810781,42.4195852 C89.9152438,42.4195852 89.9323264,42.436725 89.9323264,42.471005 L89.9323264,43.2508713 C89.9323264,43.2851513 89.9152438,43.302291 89.8810781,43.302291 L85.8751648,43.302291 C85.840999,43.302291 85.8239164,43.2851513 85.8239164,43.2508713 L85.8239164,43.105182 C85.8239164,43.070902 85.840999,43.0537622 85.8751648,43.0537622 C85.9833563,43.0537622 86.0701929,43.0423357 86.1356773,43.0194824 C86.2011616,42.996629 86.2524094,42.9680628 86.2894223,42.9337828 C86.3264352,42.8995028 86.3520591,42.863795 86.3662949,42.8266583 C86.3805306,42.7895216 86.3876484,42.7566704 86.3876484,42.7281038 L86.3876484,37.8946466 C86.3876484,37.8775066 86.3848013,37.8475121 86.379107,37.8046621 C86.3734127,37.761812 86.3549065,37.7189627 86.3235879,37.6761127 C86.2922693,37.6332627 86.2410215,37.5961265 86.1698428,37.5647032 C86.0986642,37.5332799 86.0004392,37.5175684 85.8751648,37.5175684 C85.840999,37.5175684 85.8239164,37.5004287 85.8239164,37.4661487 L85.8239164,37.3204593 C85.8239164,37.2861793 85.840999,37.2690396 85.8751648,37.2690396 L87.2844946,37.2690396 C87.3186604,37.2690396 87.335743,37.2861793 87.335743,37.3204593 L87.335743,37.4661487 C87.335743,37.5004287 87.3186604,37.5175684 87.2844946,37.5175684 C87.1478316,37.5175684 87.0439124,37.5332799 86.9727338,37.5647032 C86.9015551,37.5961265 86.8488837,37.6332627 86.814718,37.6761127 C86.7805523,37.7189627 86.7606225,37.761812 86.7549282,37.8046621 C86.749234,37.8475121 86.7463869,37.8775066 86.7463869,37.8946466 L86.7463869,42.9852025 Z M92.1957956,41.2283609 C92.2071841,41.4797476 92.2541613,41.7139908 92.3367285,41.9310975 C92.4192958,42.1482043 92.5303328,42.3367415 92.6698429,42.4967148 C92.809353,42.6566882 92.977332,42.7823797 93.173785,42.8737931 C93.3702381,42.9652064 93.5880414,43.0109124 93.8272016,43.0109124 C94.0834447,43.0109124 94.3282955,42.9537799 94.5617614,42.8395132 C94.7952273,42.7252465 94.9859832,42.5509924 95.1340347,42.3167457 C95.1511176,42.2938924 95.1738944,42.2910357 95.2023659,42.3081757 L95.3048626,42.3767354 C95.3447226,42.4053021 95.3504168,42.4395816 95.3219454,42.4795749 C95.1397281,42.753815 94.9219247,42.9666335 94.6685288,43.1180369 C94.4151329,43.2694403 94.1346933,43.3451408 93.8272016,43.3451408 C93.5367928,43.3451408 93.2720123,43.28658 93.0328521,43.1694567 C92.7936919,43.0523333 92.5872769,42.8937906 92.4136011,42.6938239 C92.2399252,42.4938572 92.1061114,42.259614 92.0121556,41.9910872 C91.9181998,41.7225605 91.8712226,41.4340414 91.8712226,41.1255213 C91.8712226,40.8170013 91.9167763,40.5284822 92.0078849,40.2599554 C92.0989936,39.9914287 92.2271132,39.7571855 92.3922476,39.5572188 C92.557382,39.357252 92.7581027,39.1987094 92.9944158,39.081586 C93.2307288,38.9644626 93.4940858,38.9059018 93.7844946,38.9059018 C94.0749035,38.9059018 94.3382604,38.9644626 94.5745735,39.081586 C94.8108865,39.1987094 95.0116073,39.357252 95.1767417,39.5572188 C95.3418761,39.7571855 95.4699957,39.9914287 95.5611044,40.2599554 C95.652213,40.5284822 95.6977667,40.8170013 95.6977667,41.1255213 C95.6977667,41.171228 95.6920724,41.1997943 95.6806839,41.2112209 C95.6692953,41.2226476 95.6408243,41.2283609 95.5952699,41.2283609 L92.1957956,41.2283609 Z M93.7844946,39.2401303 C93.5510287,39.2401303 93.3417667,39.2844079 93.1567023,39.3729646 C92.9716378,39.4615213 92.8107765,39.5829279 92.6741136,39.7371879 C92.5374506,39.891448 92.4292607,40.0714153 92.3495406,40.2770954 C92.2698206,40.4827754 92.2214198,40.7055921 92.204337,40.9455522 L95.3646523,40.9455522 C95.3475695,40.7055921 95.2991687,40.4827754 95.2194486,40.2770954 C95.1397286,40.0714153 95.0315387,39.891448 94.8948757,39.7371879 C94.7582127,39.5829279 94.5973515,39.4615213 94.412287,39.3729646 C94.2272226,39.2844079 94.0179605,39.2401303 93.7844946,39.2401303 Z M98.465178,39.5657887 C98.4367065,39.5486487 98.4338594,39.5286523 98.4566366,39.505799 C98.6730196,39.300119 98.9235646,39.1487178 99.2082792,39.0515912 C99.4929937,38.9544645 99.7691626,38.9059018 100.036794,38.9059018 C100.606223,38.9059018 101.033289,39.030165 101.318003,39.2786951 C101.602718,39.5272251 101.745073,39.8543087 101.745073,40.2599554 L101.745073,42.7281038 C101.745073,42.7566704 101.746496,42.7895216 101.749344,42.8266583 C101.752191,42.863795 101.766426,42.9009311 101.792051,42.9380678 C101.817675,42.9752044 101.854687,43.0066273 101.903089,43.0323373 C101.95149,43.0580473 102.024091,43.0709021 102.120894,43.0709021 C102.15506,43.0709021 102.172143,43.0880419 102.172143,43.1223219 L102.172143,43.2508713 C102.172143,43.2851513 102.15506,43.302291 102.120894,43.302291 L102.061104,43.302291 C101.924441,43.302291 101.816252,43.2851513 101.736531,43.2508713 C101.656811,43.2165913 101.597022,43.1765985 101.557162,43.1308918 C101.511608,43.0794718 101.483137,43.0223393 101.471748,42.9594927 C101.272448,43.0737594 101.041833,43.1665997 100.779895,43.2380163 C100.517958,43.309433 100.253178,43.3451408 99.9855459,43.3451408 C99.6951371,43.3451408 99.4332037,43.3065764 99.1997378,43.2294464 C98.9662719,43.1523164 98.7655511,43.0480496 98.5975696,42.9166429 C98.429588,42.7852362 98.3014684,42.6324067 98.2132069,42.45815 C98.1249454,42.2838933 98.0808153,42.0967844 98.0808153,41.8968177 C98.0808153,41.696851 98.1249454,41.5097421 98.2132069,41.3354853 C98.3014684,41.1612286 98.429588,41.0083992 98.5975696,40.8769925 C98.7655511,40.7455858 98.9662719,40.641319 99.1997378,40.564189 C99.4332037,40.487059 99.6951371,40.4484945 99.9855459,40.4484945 C100.099432,40.4484945 100.221857,40.4570644 100.352826,40.4742044 C100.483794,40.4913444 100.613338,40.5141974 100.741459,40.5427641 C100.869581,40.5713308 100.99343,40.6027536 101.11301,40.6370337 C101.23259,40.6713137 101.335086,40.7084498 101.4205,40.7484431 L101.4205,40.2856653 C101.4205,39.9542919 101.295227,39.6900541 101.044679,39.4929441 C100.79413,39.295834 100.458172,39.1972805 100.036794,39.1972805 C99.9513799,39.1972805 99.8517313,39.2029937 99.7378455,39.2144204 C99.6239597,39.2258471 99.505805,39.2458434 99.3833777,39.2744101 C99.2609505,39.3029768 99.1371015,39.3429695 99.0118271,39.3943895 C98.8865527,39.4458095 98.7698215,39.5143685 98.66163,39.6000686 C98.6445472,39.6114952 98.6288881,39.62435 98.6146524,39.6386334 C98.6004166,39.6529167 98.5819105,39.6514884 98.5591333,39.6343484 L98.465178,39.5657887 Z M101.4205,41.0569617 C101.34078,41.011255 101.242555,40.9698339 101.125822,40.9326973 C101.009089,40.8955606 100.886664,40.8627094 100.758542,40.8341427 C100.63042,40.805576 100.499454,40.782723 100.365638,40.765583 C100.231822,40.748443 100.105126,40.7398732 99.9855459,40.7398732 C99.7406914,40.7398732 99.520041,40.7698677 99.323588,40.8298577 C99.127135,40.8898478 98.9605795,40.9726899 98.8239165,41.0783866 C98.6872535,41.1840833 98.5833343,41.3069181 98.5121556,41.4468948 C98.440977,41.5868715 98.4053882,41.7368443 98.4053882,41.8968177 C98.4053882,42.0567911 98.440977,42.2067639 98.5121556,42.3467406 C98.5833343,42.4867173 98.6872535,42.6095521 98.8239165,42.7152488 C98.9605795,42.8209455 99.127135,42.9037876 99.323588,42.9637776 C99.520041,43.0237677 99.7406914,43.0537622 99.9855459,43.0537622 C100.11082,43.0537622 100.240363,43.0451923 100.374179,43.0280523 C100.507995,43.0109123 100.638962,42.986631 100.767083,42.9552077 C100.895205,42.9237843 101.016207,42.8866482 101.130093,42.8437982 C101.243978,42.8009482 101.34078,42.7538139 101.4205,42.7023939 L101.4205,41.0569617 Z M104.768726,39.497229 C104.768726,39.4400957 104.744526,39.372965 104.696124,39.295835 C104.647723,39.218705 104.546651,39.1801405 104.392905,39.1801405 C104.358739,39.1801405 104.341656,39.1630008 104.341656,39.1287208 L104.341656,39.0001714 C104.341656,38.9658914 104.358739,38.9487516 104.392905,38.9487516 L105.042051,38.9487516 C105.076216,38.9487516 105.093299,38.9658914 105.093299,39.0001714 L105.093299,39.6429184 C105.258433,39.4200983 105.462001,39.2415593 105.704009,39.1072959 C105.946016,38.9730325 106.220761,38.9059018 106.528253,38.9059018 C106.602279,38.9059018 106.666339,38.9159 106.720434,38.9358967 C106.77453,38.9558934 106.801577,39.0144542 106.801577,39.1115809 L106.801577,39.497229 C106.801577,39.5315091 106.784495,39.5486488 106.750329,39.5486488 L106.605125,39.5486488 C106.57096,39.5486488 106.553877,39.5315091 106.553877,39.497229 C106.553877,39.4172424 106.546759,39.3472551 106.532524,39.287265 C106.518288,39.227275 106.488393,39.1972805 106.442839,39.1972805 C106.27201,39.1972805 106.105455,39.2358449 105.943168,39.3129749 C105.78088,39.3901049 105.637102,39.4929434 105.511827,39.6214935 C105.386553,39.7500435 105.285481,39.9000163 105.208608,40.0714163 C105.131735,40.2428164 105.093299,40.4227837 105.093299,40.6113238 L105.093299,42.7538136 C105.093299,42.7709536 105.094722,42.7980916 105.09757,42.8352282 C105.100417,42.8723649 105.114652,42.9080727 105.140277,42.9423527 C105.165901,42.9766327 105.202913,43.0066273 105.251315,43.0323373 C105.299716,43.0580473 105.372317,43.0709021 105.46912,43.0709021 C105.503286,43.0709021 105.520369,43.0880419 105.520369,43.1223219 L105.520369,43.2508713 C105.520369,43.2851513 105.503286,43.302291 105.46912,43.302291 L104.392905,43.302291 C104.358739,43.302291 104.341656,43.2851513 104.341656,43.2508713 L104.341656,43.1223219 C104.341656,43.0880419 104.358739,43.0709021 104.392905,43.0709021 C104.546651,43.0709021 104.647723,43.033766 104.696124,42.9594927 C104.744526,42.8852193 104.768726,42.8166603 104.768726,42.7538136 L104.768726,39.497229 Z M109.176085,39.5572188 C109.176085,39.5400788 109.174661,39.5100842 109.171814,39.4672342 C109.168967,39.4243842 109.154731,39.3815348 109.129107,39.3386848 C109.103483,39.2958348 109.065047,39.2586987 109.013798,39.2272753 C108.96255,39.195852 108.891372,39.1801405 108.800263,39.1801405 C108.766098,39.1801405 108.749015,39.1630008 108.749015,39.1287208 L108.749015,39.0001714 C108.749015,38.9658914 108.766098,38.9487516 108.800263,38.9487516 L109.363995,38.9487516 C109.398161,38.9487516 109.418091,38.9658914 109.423785,39.0001714 L109.492116,39.5400788 C109.657251,39.3458255 109.876478,39.1915677 110.149804,39.077301 C110.423129,38.9630343 110.699298,38.9059018 110.978319,38.9059018 C111.228867,38.9059018 111.459483,38.9416097 111.670171,39.0130263 C111.88086,39.084443 112.063075,39.1901381 112.216821,39.3301148 C112.370566,39.4700915 112.490145,39.6443456 112.575559,39.8528824 C112.660973,40.0614191 112.70368,40.3056605 112.70368,40.5856139 L112.70368,42.7538136 C112.70368,42.7823803 112.709374,42.8152315 112.720763,42.8523682 C112.732151,42.8895048 112.750658,42.9237843 112.776282,42.9552077 C112.801906,42.986631 112.838918,43.013769 112.88732,43.0366223 C112.935721,43.0594756 112.999781,43.0709021 113.079501,43.0709021 C113.113667,43.0709021 113.13075,43.0880419 113.13075,43.1223219 L113.13075,43.2508713 C113.13075,43.2851513 113.113667,43.302291 113.079501,43.302291 L112.003286,43.302291 C111.96912,43.302291 111.952037,43.2851513 111.952037,43.2508713 L111.952037,43.1223219 C111.952037,43.0880419 111.96912,43.0709021 112.003286,43.0709021 C112.157032,43.0709021 112.25668,43.033766 112.302235,42.9594927 C112.347789,42.8852193 112.373413,42.8166603 112.379107,42.7538136 L112.379107,40.5941839 C112.379107,40.3656505 112.343518,40.1628301 112.27234,39.9857167 C112.201161,39.8086034 112.10436,39.6629155 111.981932,39.5486488 C111.859505,39.4343821 111.712879,39.3472551 111.542051,39.287265 C111.371222,39.227275 111.183313,39.1972805 110.978319,39.1972805 C110.824573,39.1972805 110.672253,39.2201335 110.521354,39.2658401 C110.370455,39.3115468 110.2281,39.3743926 110.094284,39.4543792 C109.960469,39.5343659 109.842314,39.6300629 109.739817,39.7414729 C109.637319,39.8528829 109.557601,39.9771461 109.500658,40.1142661 L109.500658,42.6938239 C109.500658,42.7109639 109.502081,42.7409585 109.504928,42.7838085 C109.507776,42.8266585 109.522011,42.8695079 109.547635,42.9123579 C109.57326,42.9552079 109.610272,42.992344 109.658673,43.0237674 C109.707075,43.0551907 109.779676,43.0709021 109.876479,43.0709021 C109.910645,43.0709021 109.927727,43.0880419 109.927727,43.1223219 L109.927727,43.2508713 C109.927727,43.2851513 109.910645,43.302291 109.876479,43.302291 L108.800263,43.302291 C108.766098,43.302291 108.749015,43.2851513 108.749015,43.2508713 L108.749015,43.1223219 C108.749015,43.0880419 108.766098,43.0709021 108.800263,43.0709021 C108.891372,43.0709021 108.96255,43.0551907 109.013798,43.0237674 C109.065047,42.992344 109.103483,42.9552079 109.129107,42.9123579 C109.154731,42.8695079 109.168967,42.8266585 109.171814,42.7838085 C109.174661,42.7409585 109.176085,42.7109639 109.176085,42.6938239 L109.176085,39.5572188 Z M115.693168,39.497229 C115.687473,39.4400957 115.661849,39.372965 115.616295,39.295835 C115.570741,39.218705 115.471092,39.1801405 115.317346,39.1801405 C115.283181,39.1801405 115.266098,39.1630008 115.266098,39.1287208 L115.266098,39.0001714 C115.266098,38.9658914 115.283181,38.9487516 115.317346,38.9487516 L115.966492,38.9487516 C116.000658,38.9487516 116.017741,38.9658914 116.017741,39.0001714 L116.017741,42.7109638 C116.017741,42.7395305 116.023435,42.7752383 116.034823,42.8180883 C116.046212,42.8609383 116.064718,42.9009311 116.090342,42.9380678 C116.115967,42.9752044 116.152979,43.0066273 116.20138,43.0323373 C116.249782,43.0580473 116.313842,43.0709021 116.393562,43.0709021 C116.427728,43.0709021 116.44481,43.0880419 116.44481,43.1223219 L116.44481,43.2508713 C116.44481,43.2851513 116.427728,43.302291 116.393562,43.302291 L115.317346,43.302291 C115.283181,43.302291 115.266098,43.2851513 115.266098,43.2508713 L115.266098,43.1223219 C115.266098,43.0880419 115.283181,43.0709021 115.317346,43.0709021 C115.408455,43.0709021 115.479632,43.0551907 115.530881,43.0237674 C115.58213,42.992344 115.620566,42.9552079 115.64619,42.9123579 C115.671814,42.8695079 115.68605,42.8266585 115.688897,42.7838085 C115.691744,42.7409585 115.693168,42.7109639 115.693168,42.6938239 L115.693168,39.497229 Z M115.693168,37.3204593 C115.693168,37.2861793 115.71025,37.2690396 115.744416,37.2690396 L115.966492,37.2690396 C116.000658,37.2690396 116.017741,37.2861793 116.017741,37.3204593 L116.017741,37.8775067 C116.017741,37.9117867 116.000658,37.9289265 115.966492,37.9289265 L115.744416,37.9289265 C115.71025,37.9289265 115.693168,37.9117867 115.693168,37.8775067 L115.693168,37.3204593 Z M119.015769,39.5572188 C119.015769,39.5400788 119.014346,39.5100842 119.011499,39.4672342 C119.008652,39.4243842 118.994416,39.3815348 118.968792,39.3386848 C118.943167,39.2958348 118.904732,39.2586987 118.853483,39.2272753 C118.802234,39.195852 118.731057,39.1801405 118.639948,39.1801405 C118.605782,39.1801405 118.5887,39.1630008 118.5887,39.1287208 L118.5887,39.0001714 C118.5887,38.9658914 118.605782,38.9487516 118.639948,38.9487516 L119.20368,38.9487516 C119.237846,38.9487516 119.257776,38.9658914 119.26347,39.0001714 L119.331801,39.5400788 C119.496935,39.3458255 119.716162,39.1915677 119.989488,39.077301 C120.262814,38.9630343 120.538983,38.9059018 120.818003,38.9059018 C121.068552,38.9059018 121.299167,38.9416097 121.509856,39.0130263 C121.720545,39.084443 121.902759,39.1901381 122.056505,39.3301148 C122.210251,39.4700915 122.329829,39.6443456 122.415244,39.8528824 C122.500658,40.0614191 122.543365,40.3056605 122.543365,40.5856139 L122.543365,42.7538136 C122.543365,42.7823803 122.549059,42.8152315 122.560447,42.8523682 C122.571836,42.8895048 122.590342,42.9237843 122.615967,42.9552077 C122.641591,42.986631 122.678603,43.013769 122.727005,43.0366223 C122.775406,43.0594756 122.839466,43.0709021 122.919186,43.0709021 C122.953352,43.0709021 122.970434,43.0880419 122.970434,43.1223219 L122.970434,43.2508713 C122.970434,43.2851513 122.953352,43.302291 122.919186,43.302291 L121.84297,43.302291 C121.808805,43.302291 121.791722,43.2851513 121.791722,43.2508713 L121.791722,43.1223219 C121.791722,43.0880419 121.808805,43.0709021 121.84297,43.0709021 C121.996716,43.0709021 122.096365,43.033766 122.141919,42.9594927 C122.187474,42.8852193 122.213097,42.8166603 122.218792,42.7538136 L122.218792,40.5941839 C122.218792,40.3656505 122.183203,40.1628301 122.112024,39.9857167 C122.040846,39.8086034 121.944044,39.6629155 121.821617,39.5486488 C121.69919,39.4343821 121.552564,39.3472551 121.381735,39.287265 C121.210907,39.227275 121.022998,39.1972805 120.818003,39.1972805 C120.664258,39.1972805 120.511938,39.2201335 120.361039,39.2658401 C120.21014,39.3115468 120.067785,39.3743926 119.933969,39.4543792 C119.800153,39.5343659 119.681999,39.6300629 119.579501,39.7414729 C119.477004,39.8528829 119.397285,39.9771461 119.340342,40.1142661 L119.340342,42.6938239 C119.340342,42.7109639 119.341766,42.7409585 119.344613,42.7838085 C119.34746,42.8266585 119.361696,42.8695079 119.38732,42.9123579 C119.412944,42.9552079 119.449957,42.992344 119.498358,43.0237674 C119.54676,43.0551907 119.619361,43.0709021 119.716164,43.0709021 C119.750329,43.0709021 119.767412,43.0880419 119.767412,43.1223219 L119.767412,43.2508713 C119.767412,43.2851513 119.750329,43.302291 119.716164,43.302291 L118.639948,43.302291 C118.605782,43.302291 118.5887,43.2851513 118.5887,43.2508713 L118.5887,43.1223219 C118.5887,43.0880419 118.605782,43.0709021 118.639948,43.0709021 C118.731057,43.0709021 118.802234,43.0551907 118.853483,43.0237674 C118.904732,42.992344 118.943167,42.9552079 118.968792,42.9123579 C118.994416,42.8695079 119.008652,42.8266585 119.011499,42.7838085 C119.014346,42.7409585 119.015769,42.7109639 119.015769,42.6938239 L119.015769,39.5572188 Z M129.478976,38.9487516 C129.513142,38.9487516 129.530224,38.9658914 129.530224,39.0001714 L129.530224,39.1287208 C129.530224,39.1630008 129.513142,39.1801405 129.478976,39.1801405 C129.382173,39.1801405 129.309572,39.195852 129.26117,39.2272753 C129.212769,39.2586987 129.175756,39.2958348 129.150132,39.3386848 C129.124508,39.3815348 129.110272,39.4243842 129.107425,39.4672342 C129.104578,39.5100842 129.103154,39.5400788 129.103154,39.5572188 L129.103154,43.3965606 C129.103154,43.607954 129.056177,43.8064894 128.962222,43.9921728 C128.868266,44.1778562 128.738723,44.3392554 128.573588,44.4763755 C128.408454,44.6134955 128.216274,44.7220472 127.997044,44.8020339 C127.777814,44.8820206 127.542928,44.9220134 127.292379,44.9220134 C127.087385,44.9220134 126.893782,44.8948754 126.711564,44.8405988 C126.529347,44.7863221 126.361368,44.7106215 126.207622,44.6134948 C126.053876,44.5163681 125.920063,44.4006748 125.806177,44.2664115 C125.692291,44.1321481 125.606878,43.9821753 125.549935,43.8164886 C125.538546,43.7936353 125.537123,43.7807805 125.545664,43.7779238 C125.554206,43.7750671 125.567018,43.7679256 125.584101,43.7564989 L125.70368,43.7136491 C125.737846,43.7022224 125.760623,43.7136489 125.772011,43.7479289 C125.82326,43.8793356 125.900132,43.9993139 126.002629,44.1078672 C126.105126,44.2164206 126.224704,44.3092609 126.361367,44.3863909 C126.49803,44.4635209 126.64608,44.52351 126.80552,44.5663601 C126.96496,44.6092101 127.127245,44.6306347 127.292379,44.6306347 C127.491679,44.6306347 127.681012,44.5977836 127.860382,44.5320802 C128.039752,44.4663769 128.197766,44.3778215 128.334429,44.2664115 C128.471092,44.1550014 128.579282,44.025025 128.659002,43.8764783 C128.738722,43.7279316 128.778582,43.5708173 128.778582,43.4051305 L128.778582,42.8566531 C128.607753,42.9366398 128.407032,42.9966289 128.176413,43.0366223 C127.945795,43.0766156 127.727991,43.096612 127.522997,43.096612 C127.181339,43.096612 126.866735,43.0423361 126.579173,42.9337828 C126.291611,42.8252294 126.043913,42.6766849 125.836072,42.4881449 C125.62823,42.2996048 125.464522,42.0782164 125.344942,41.823973 C125.225362,41.5697296 125.165572,41.296922 125.165572,41.0055419 C125.165572,40.7141618 125.225362,40.4413542 125.344942,40.1871108 C125.464522,39.9328674 125.62823,39.711479 125.836072,39.5229389 C126.043913,39.3343989 126.291611,39.1844261 126.579173,39.0730161 C126.866735,38.961606 127.181339,38.9059018 127.522997,38.9059018 C127.73938,38.9059018 127.962877,38.9287548 128.193496,38.9744615 C128.424115,39.0201682 128.627683,39.0830139 128.804206,39.1630006 L128.923785,38.9916014 C128.935174,38.9687481 128.945139,38.9558933 128.95368,38.9530366 C128.962222,38.95018 128.977881,38.9487516 129.000658,38.9487516 L129.478976,38.9487516 Z M127.522997,39.1972805 C127.226894,39.1972805 126.954995,39.2444148 126.707294,39.3386848 C126.459592,39.4329548 126.246059,39.5615029 126.066689,39.724333 C125.887319,39.887163 125.746388,40.0785569 125.64389,40.2985203 C125.541393,40.5184836 125.490145,40.7541552 125.490145,41.0055419 C125.490145,41.2569286 125.541393,41.4911719 125.64389,41.7082786 C125.746388,41.9253853 125.887319,42.1153508 126.066689,42.2781809 C126.246059,42.4410109 126.459592,42.569559 126.707294,42.6638291 C126.954995,42.7580991 127.226894,42.8052334 127.522997,42.8052334 C127.73938,42.8052334 127.961454,42.7809521 128.189225,42.7323887 C128.416997,42.6838254 128.613447,42.6138381 128.778582,42.5224247 L128.778582,39.4800891 C128.613447,39.3886758 128.416997,39.3186885 128.189225,39.2701251 C127.961454,39.2215618 127.73938,39.1972805 127.522997,39.1972805 Z" id="The-Universe-of-Lear" fill="#2B2B2B"></path>
                <path d="M2.69552854,8.69159879 C4.10108195,10.1659095 5.48556882,10.9030649 6.84898913,10.9030649 C8.21240945,10.9030649 9.78710387,10.2055472 11.5730724,8.8105117 L11.5730724,8.33622031 L11.5730724,6.68641615 L6.84898913,9.10701924 L2.69552854,6.5323366 L2.69552854,8.33622031 L2.69552854,8.69159879 Z" id="Path-3" fill="#24479D"></path>
                <polygon id="Rectangle-3" fill="#24479D" points="13.9584342 6.96566303 14.3136616 6.96566303 14.3136616 5.00914129 14.62108 4.86945268 14.62108 6.96566303 14.9699149 6.96566303 14.9699149 9.78870849 13.9584342 9.78870849"></polygon>
                <polygon id="Path-5" fill="#24479D" points="0 4.21862343 6.75729613 8.37718576 15.3745072 4.21862343 6.75729613 0.109695481"></polygon>
                <path d="M113.465913,0.168656802 C113.612143,0.168656802 113.703535,0.186996331 113.740092,0.223675941 C113.776649,0.260355551 113.794928,0.364279553 113.794928,0.535451066 L113.794928,3.72656116 C113.794928,3.8732796 113.776649,3.96497725 113.740092,4.00165686 C113.703535,4.03833647 113.612143,4.056676 113.465913,4.056676 C113.124711,4.056676 112.844443,4.11169459 112.625099,4.22173342 C112.405754,4.33177225 112.241249,4.46014896 112.131577,4.60686739 C112.021905,4.75358583 111.942698,4.90641525 111.893955,5.06536022 C111.845212,5.2243052 111.820841,5.36490826 111.820841,5.48717363 L111.820841,21.204822 C111.820841,22.0117734 111.960975,22.7698073 112.241248,23.4789465 C112.521521,24.1880856 112.905368,24.8055164 113.392799,25.3312575 C113.88023,25.8569986 114.452953,26.2726946 115.110986,26.578358 C115.769018,26.8840214 116.475782,27.0368508 117.231301,27.0368508 C117.986819,27.0368508 118.693584,26.8840214 119.351616,26.578358 C120.009648,26.2726946 120.582372,25.8569986 121.069803,25.3312575 C121.557234,24.8055164 121.947173,24.1880856 122.239632,23.4789465 C122.532091,22.7698073 122.678318,22.0117734 122.678318,21.204822 L122.678318,5.48717363 C122.678318,5.41381441 122.672225,5.29766405 122.660039,5.13871908 C122.647854,4.9797741 122.586926,4.82083151 122.477254,4.66188653 C122.367582,4.50294156 122.203076,4.3623385 121.983732,4.24007313 C121.764388,4.11780776 121.447562,4.056676 121.033246,4.056676 C120.862645,4.056676 120.759067,4.03833647 120.72251,4.00165686 C120.685953,3.96497725 120.667674,3.8732796 120.667674,3.72656116 L120.667674,0.535451066 C120.667674,0.364279553 120.685953,0.260355551 120.72251,0.223675941 C120.759067,0.186996331 120.862645,0.168656802 121.033246,0.168656802 L129.551064,0.168656802 C129.721665,0.168656802 129.825243,0.186996331 129.8618,0.223675941 C129.898358,0.260355551 129.916636,0.364279553 129.916636,0.535451066 L129.916636,3.72656116 C129.916636,3.8732796 129.898358,3.96497725 129.8618,4.00165686 C129.825243,4.03833647 129.721665,4.056676 129.551064,4.056676 C129.209863,4.056676 128.929594,4.11169459 128.71025,4.22173342 C128.490906,4.33177225 128.3264,4.46014896 128.216728,4.60686739 C128.107056,4.75358583 128.02785,4.90641525 127.979106,5.06536022 C127.930363,5.2243052 127.905992,5.36490826 127.905992,5.48717363 L127.905992,21.204822 C127.905992,22.6720064 127.625723,24.0291316 127.065177,25.2762384 C126.504631,26.5233451 125.743032,27.5992642 124.780355,28.5040279 C123.817678,29.4087916 122.684417,30.1179201 121.380539,30.6314346 C120.07666,31.1449491 118.693595,31.4017026 117.231301,31.4017026 C115.769007,31.4017026 114.385942,31.1449491 113.082063,30.6314346 C111.778184,30.1179201 110.644924,29.4087916 109.682247,28.5040279 C108.71957,27.5992642 107.95797,26.5233451 107.397424,25.2762384 C106.836878,24.0291316 106.55661,22.6720064 106.55661,21.204822 L106.55661,5.48717363 C106.55661,5.38936133 106.544424,5.26098463 106.520053,5.10203965 C106.495681,4.94309467 106.42866,4.78415208 106.318988,4.62520711 C106.209316,4.46626213 106.044811,4.33177225 105.825466,4.22173342 C105.606122,4.11169459 105.301482,4.056676 104.911537,4.056676 C104.765308,4.056676 104.673916,4.03833647 104.637359,4.00165686 C104.600801,3.96497725 104.582523,3.8732796 104.582523,3.72656116 L104.582523,0.535451066 C104.582523,0.364279553 104.600801,0.260355551 104.637359,0.223675941 C104.673916,0.186996331 104.765308,0.168656802 104.911537,0.168656802 L113.465913,0.168656802 Z" id="U" fill="#24479D"></path>
            </g>
        </g>
    </g>
</svg>