<?xml version="1.0" encoding="UTF-8"?>
<svg width="34px" height="42px" viewBox="0 0 34 42" version="1.1" xmlns="http://www.w3.org/2000/svg" xmlns:xlink="http://www.w3.org/1999/xlink">
    <!-- Generator:Sketch 53.2 (72643) - https://sketchapp.com -->
    <title>hotel</title>
    <desc>Created with Sketch.</desc>
    <g id="Page-1" stroke="none" stroke-width="1" fill="none" fill-rule="evenodd">
        <g id="VP-Types" transform="translate(-297.000000, -391.000000)" fill-rule="nonzero">
            <g id="hotel" transform="translate(297.000000, 391.000000)">
                <polygon id="Path" fill="#F78F1E" points="4.23345946 21.8381081 10.9672973 21.8381081 10.9672973 1.26259459 4.60837838 1.82313514"></polygon>
                <polygon id="Path" fill="#F78F1E" points="30.2324324 21.8381081 23.5932432 21.8381081 23.5932432 1.26259459 29.6718919 2.01059459"></polygon>
                <g id="Group" fill="#25499C">
                    <path d="M31.1384865,36.2504324 L30.7938919,36.2522703 L30.7938919,4.16637838 C30.7938919,2.20724324 29.2004865,0.612918919 27.2404324,0.612918919 L6.85237838,0.612918919 C4.89324324,0.612918919 3.29891892,2.20724324 3.29891892,4.16637838 L3.29891892,36.4066486 L2.84864865,36.4084865 C2.18243243,36.414 1.55481081,36.6492432 1.07972973,37.0728649 C0.576162162,37.5203784 0.301405405,38.1222703 0.306918919,38.7655135 C0.316108108,40.0455676 1.46108108,41.0848649 2.86059459,41.0848649 L31.1504324,40.9258919 C31.8157297,40.9222162 32.4433514,40.6851351 32.9202703,40.2615135 C33.4229189,39.814 33.6976757,39.213027 33.6930811,38.5707027 C33.682973,37.2915676 32.5370811,36.2504324 31.1384865,36.2504324 Z M24.060973,2.10891892 L27.2404324,2.10891892 C28.3752973,2.10891892 29.2978919,3.03243243 29.2978919,4.16637838 L29.2978919,21.3703784 L24.060973,21.3703784 L24.060973,2.10891892 Z M11.3412973,2.10891892 L23.3120541,2.10891892 L23.3120541,21.3703784 L11.3412973,21.3703784 L11.3412973,2.10891892 Z M4.79491892,4.16637838 C4.79491892,3.03243243 5.71843243,2.10891892 6.85237838,2.10891892 L10.5932973,2.10891892 L10.5932973,21.3703784 L4.794,21.3703784 L4.794,4.16637838 L4.79491892,4.16637838 Z M4.79491892,22.1174595 L29.2978919,22.1174595 L29.2978919,23.6741081 L4.79491892,23.6741081 L4.79491892,22.1174595 Z M2.86978378,39.5879459 L2.86059459,40.3359459 L2.86059459,39.5888649 C2.28075676,39.5888649 1.80659459,39.2139459 1.80291892,38.7544865 C1.802,38.5477297 1.89848649,38.3483243 2.07491892,38.1911892 C2.27983784,38.0092432 2.55643243,37.9072432 2.85783784,37.9054054 L5.60724324,37.8897838 C5.60632432,38.5642703 5.63389189,39.145027 5.66513514,39.5723243 L2.86978378,39.5879459 Z M27.4232973,39.451027 L6.79264865,39.5668108 C6.76416216,39.1560541 6.73475676,38.5707027 6.73567568,37.8833514 L27.472,37.7675676 C27.4765946,38.4411351 27.4508649,39.0255676 27.4232973,39.451027 Z M14.8947568,36.3414054 L14.8947568,28.9817838 C14.8947568,27.8469189 15.8182703,26.9243243 16.9522162,26.9243243 L17.5136757,26.9243243 C18.6476216,26.9243243 19.5702162,27.8469189 19.5702162,28.9817838 L19.5702162,36.3147568 L14.8947568,36.3414054 Z M26.2792432,29.965027 C27.0658378,29.9558378 27.6125946,30.135027 27.6631351,30.1515676 C27.9544324,30.2526486 28.2732973,30.0991892 28.3752973,29.806973 C28.4782162,29.5156757 28.3247568,29.194973 28.0316216,29.0920541 C27.9608649,29.0672432 27.0171351,28.7492973 25.7435135,28.8715135 C26.1175135,27.8395676 26.633027,27.3056757 26.6762162,27.2615676 C26.8949189,27.0447027 26.8967568,26.6909189 26.6798919,26.4703784 C26.463027,26.2498378 26.1064865,26.2470811 25.8859459,26.4648649 C25.8354054,26.5144865 25.1728649,27.1852973 24.7005405,28.4644324 C24.1611351,28.0766486 23.4388649,27.6824324 22.7267027,27.6824324 C22.4161081,27.6824324 22.1652432,27.9332973 22.1652432,28.2438919 C22.1652432,28.5535676 22.4161081,28.8044324 22.7267027,28.8044324 C23.108973,28.8044324 23.5748649,29.0516216 23.9718378,29.3263784 C23.3359459,29.6020541 22.6816757,30.0174054 22.0512973,30.6385946 C21.8307568,30.8554595 21.828,31.2110811 22.0457838,31.4316216 C22.1551351,31.5428108 22.2994054,31.5997838 22.4455135,31.5997838 C22.587027,31.5997838 22.7303784,31.5455676 22.8397297,31.4380541 C23.3074595,30.9767568 23.7908108,30.6532973 24.2640541,30.4281622 C24.1932973,31.1917838 24.2171892,32.0638378 24.400973,33.0461622 C24.4515135,33.3154054 24.6885946,33.5037838 24.9523243,33.5037838 C24.9863243,33.5037838 25.0212432,33.5001081 25.0561622,33.4936757 C25.3603243,33.4357838 25.5615676,33.1435676 25.5045946,32.8384865 C25.3492973,32.0142162 25.3217297,31.2827568 25.3704324,30.6413514 C26.7414595,31.9563243 27.2487027,34.2563784 27.4085946,36.2697297 L21.068973,36.3055676 L21.068973,28.9799459 C21.068973,27.018973 19.4755676,25.4264865 17.5155135,25.4264865 L16.9540541,25.4264865 C14.9949189,25.4264865 13.4005946,27.018973 13.4005946,28.9799459 L13.4005946,36.3487568 L6.79356757,36.3855135 C6.94243243,34.3445946 7.44232432,31.982973 8.83816216,30.6431892 C8.8887027,31.2836757 8.8592973,32.0160541 8.70583784,32.8384865 C8.64794595,33.1435676 8.84918919,33.4357838 9.15427027,33.4936757 C9.18827027,33.5001081 9.22318919,33.5037838 9.25718919,33.5037838 C9.52183784,33.5037838 9.758,33.3154054 9.80854054,33.0461622 C9.99232432,32.0647568 10.0171351,31.1917838 9.94637838,30.4281622 C10.4187027,30.6523784 10.9020541,30.9767568 11.3697838,31.4380541 C11.4791351,31.5455676 11.6215676,31.5997838 11.764,31.5997838 C11.9091892,31.5997838 12.0534595,31.5428108 12.1646486,31.4316216 C12.3815135,31.2110811 12.3787568,30.8554595 12.1582162,30.6385946 C11.5278378,30.0174054 10.8744865,29.6020541 10.2385946,29.3263784 C10.6355676,29.0507027 11.1005405,28.8044324 11.4837297,28.8044324 C11.7934054,28.8044324 12.0442703,28.5535676 12.0442703,28.2438919 C12.0442703,27.9332973 11.7934054,27.6824324 11.4837297,27.6824324 C10.7715676,27.6824324 10.0474595,28.0766486 9.50897297,28.4644324 C9.03664865,27.1852973 8.37410811,26.5144865 8.32356757,26.4648649 C8.10302703,26.2470811 7.74740541,26.2498378 7.53054054,26.4703784 C7.31367568,26.6918378 7.31643243,27.0474595 7.53697297,27.2643243 C7.54708108,27.2744324 8.0772973,27.8110811 8.46324324,28.8715135 C7.19054054,28.7502162 6.25048649,29.0681622 6.17881081,29.0920541 C5.88751351,29.1940541 5.73497297,29.5129189 5.83605405,29.8042162 C5.93621622,30.0964324 6.256,30.2517297 6.5472973,30.1515676 C6.59691892,30.135027 7.14367568,29.9558378 7.93118919,29.965027 C6.36351351,31.5841622 5.81767568,34.1957297 5.66237838,36.3928649 L4.79767568,36.3974595 L4.79767568,25.171027 L29.3006486,25.171027 L29.3006486,36.2605405 L28.5416216,36.2651351 C28.3716216,34.0955676 27.8165946,31.5538378 26.2792432,29.965027 Z M31.9250811,39.1459459 C31.7201622,39.326973 31.4426486,39.428973 31.1412432,39.4308108 L28.5517297,39.4464324 C28.5802162,39.0053514 28.605027,38.4255135 28.5995135,37.7620541 L31.1384865,37.7473514 C31.7192432,37.7473514 32.1924865,38.1213514 32.1961622,38.5817297 C32.198,38.7875676 32.1024324,38.9878919 31.9250811,39.1459459 Z" id="Shape"></path>
                    <path d="M15.0822162,4.19762162 C14.6696216,4.19762162 14.3342162,4.53210811 14.3342162,4.94562162 L14.3342162,5.50616216 C14.3342162,5.91967568 14.6696216,6.25416216 15.0822162,6.25416216 C15.4957297,6.25416216 15.8302162,5.91967568 15.8302162,5.50616216 L15.8302162,4.94562162 C15.8311351,4.53302703 15.4957297,4.19762162 15.0822162,4.19762162 Z" id="Path"></path>
                    <path d="M15.0822162,8.33459459 C14.6696216,8.33459459 14.3342162,8.67 14.3342162,9.08259459 L14.3342162,10.154973 C14.3342162,10.5675676 14.6696216,10.902973 15.0822162,10.902973 C15.4957297,10.902973 15.8302162,10.5675676 15.8302162,10.154973 L15.8302162,9.08259459 C15.8311351,8.67091892 15.4957297,8.33459459 15.0822162,8.33459459 Z" id="Path"></path>
                    <path d="M15.0822162,12.9834054 C14.6696216,12.9834054 14.3342162,13.3178919 14.3342162,13.7304865 L14.3342162,14.8037838 C14.3342162,15.2172973 14.6696216,15.5508649 15.0822162,15.5508649 C15.4957297,15.5508649 15.8302162,15.2172973 15.8302162,14.8037838 L15.8302162,13.7304865 C15.8311351,13.3178919 15.4957297,12.9834054 15.0822162,12.9834054 Z" id="Path"></path>
                    <path d="M15.0822162,17.6322162 C14.6696216,17.6322162 14.3342162,17.9667027 14.3342162,18.3802162 L14.3342162,18.9407568 C14.3342162,19.3533514 14.6696216,19.6887568 15.0822162,19.6887568 C15.4957297,19.6887568 15.8302162,19.3533514 15.8302162,18.9407568 L15.8302162,18.3802162 C15.8311351,17.9667027 15.4957297,17.6322162 15.0822162,17.6322162 Z" id="Path"></path>
                    <path d="M19.5711351,4.19762162 C19.1585405,4.19762162 18.8240541,4.53210811 18.8240541,4.94562162 L18.8240541,5.50616216 C18.8240541,5.91967568 19.1585405,6.25416216 19.5711351,6.25416216 C19.9846486,6.25416216 20.3191351,5.91967568 20.3191351,5.50616216 L20.3191351,4.94562162 C20.3191351,4.53302703 19.9846486,4.19762162 19.5711351,4.19762162 Z" id="Path"></path>
                    <path d="M19.5711351,12.9834054 C19.1585405,12.9834054 18.8240541,13.3178919 18.8240541,13.7304865 L18.8240541,14.8037838 C18.8240541,15.2172973 19.1585405,15.5508649 19.5711351,15.5508649 C19.9846486,15.5508649 20.3191351,15.2172973 20.3191351,14.8037838 L20.3191351,13.7304865 C20.3191351,13.3178919 19.9846486,12.9834054 19.5711351,12.9834054 Z" id="Path"></path>
                    <path d="M19.5711351,8.33459459 C19.1585405,8.33459459 18.8240541,8.67 18.8240541,9.08259459 L18.8240541,10.154973 C18.8240541,10.5675676 19.1585405,10.902973 19.5711351,10.902973 C19.9846486,10.902973 20.3191351,10.5675676 20.3191351,10.154973 L20.3191351,9.08259459 C20.3191351,8.67091892 19.9846486,8.33459459 19.5711351,8.33459459 Z" id="Path"></path>
                    <path d="M19.5711351,17.6322162 C19.1585405,17.6322162 18.8240541,17.9667027 18.8240541,18.3802162 L18.8240541,18.9407568 C18.8240541,19.3533514 19.1585405,19.6887568 19.5711351,19.6887568 C19.9846486,19.6887568 20.3191351,19.3533514 20.3191351,18.9407568 L20.3191351,18.3802162 C20.3191351,17.9667027 19.9846486,17.6322162 19.5711351,17.6322162 Z" id="Path"></path>
                </g>
            </g>
        </g>
    </g>
</svg>