<?xml version="1.0" encoding="UTF-8"?>
<svg width="38px" height="41px" viewBox="0 0 38 41" version="1.1" xmlns="http://www.w3.org/2000/svg" xmlns:xlink="http://www.w3.org/1999/xlink">
    <!-- Generator:Sketch 53.2 (72643) - https://sketchapp.com -->
    <title>independent-home</title>
    <desc>Created with Sketch.</desc>
    <g id="Page-1" stroke="none" stroke-width="1" fill="none" fill-rule="evenodd">
        <g id="VP-Types" transform="translate(-293.000000, -256.000000)" fill-rule="nonzero">
            <g id="independent-home" transform="translate(293.000000, 256.000000)">
                <path d="M5.13370732,21.7146829 C5.13370732,21.7146829 1.82863415,26.3247317 1.48107317,20.8369756 L19.2761951,1.5895122 L37.0194146,20.4857073 C37.0194146,20.4857073 37.6793171,22.3106341 36.4280976,22.957561 C36.4280976,22.957561 35.4280488,23.457122 34.5169756,22.5479024 L19.336439,6.27278049 L5.13370732,21.7146829 Z" id="Path" fill="#F78F1E"></path>
                <rect id="Rectangle" fill="#F78F1E" x="24.4701463" y="2.014" width="8.42580488" height="2.546"></rect>
                <path d="M37.1880976,19.8869756 C37.1816098,19.8777073 37.1741951,19.868439 37.1686341,19.8600976 C37.0944878,19.7572195 37.0166341,19.6552683 36.924878,19.5505366 C36.8850244,19.505122 36.8396098,19.4717561 36.7914146,19.4439512 L31.8291707,14.0905854 C31.832878,14.065561 31.8375122,14.0386829 31.8375122,14.0127317 L31.8375122,5.30146341 L32.3203902,5.30146341 C33.0238537,5.30146341 33.5947805,4.73053659 33.5947805,4.028 L33.5947805,2.66370732 C33.5947805,1.96209756 33.0238537,1.39117073 32.3203902,1.39117073 L25.1078049,1.39117073 C24.407122,1.39117073 23.8352683,1.96209756 23.8352683,2.66370732 L23.8352683,4.028 C23.8352683,4.73053659 24.407122,5.30146341 25.1078049,5.30146341 L25.2903902,5.30146341 L25.2903902,7.03741463 L19.6283902,0.929609756 C19.6237561,0.923121951 19.6163415,0.919414634 19.6126341,0.915707317 C19.6061463,0.909219512 19.602439,0.902731707 19.596878,0.898097561 C19.5894634,0.890682927 19.5792683,0.884195122 19.5709268,0.878634146 C19.5560976,0.865658537 19.5421951,0.853609756 19.5255122,0.844341463 C19.5097561,0.834146341 19.4958537,0.824878049 19.4800976,0.817463415 C19.4624878,0.81004878 19.4485854,0.801707317 19.4309756,0.795219512 C19.4142927,0.788731707 19.3976098,0.783170732 19.3809268,0.777609756 C19.3642439,0.773902439 19.3466341,0.768341463 19.330878,0.765560976 C19.3123415,0.76 19.2956585,0.759073171 19.2761951,0.757219512 C19.2595122,0.756292683 19.2437561,0.755365854 19.2261463,0.755365854 C19.2076098,0.755365854 19.1890732,0.756292683 19.1714634,0.757219512 C19.1557073,0.759073171 19.1390244,0.762780488 19.1214146,0.765560976 C19.102878,0.768341463 19.0861951,0.773902439 19.0676585,0.778536585 C19.0519024,0.783170732 19.0361463,0.788731707 19.0213171,0.795219512 C19.0037073,0.802634146 18.9870244,0.811902439 18.9694146,0.818390244 C18.9545854,0.826731707 18.9397561,0.836 18.9258537,0.844341463 C18.9091707,0.855463415 18.8943415,0.867512195 18.880439,0.879560976 C18.8711707,0.885121951 18.8609756,0.891609756 18.8544878,0.89902439 C18.848,0.904585366 18.8442927,0.910146341 18.8387317,0.916634146 C18.8340976,0.921268293 18.8276098,0.925902439 18.8229756,0.930536585 L1.81287805,19.4133659 C1.74336585,19.4439512 1.67941463,19.4902927 1.62658537,19.5496098 C1.51165854,19.6830732 1.41341463,19.8119024 1.32629268,19.9416585 L1.25029268,20.0232195 C1.178,20.1010732 1.13536585,20.1946829 1.11682927,20.2901463 C0.647853659,21.198439 0.793365854,21.9973659 1.04268293,22.5525366 C1.30590244,23.1392195 1.8304878,23.5359024 2.48297561,23.6424878 C2.60068293,23.6619512 2.71746341,23.6712195 2.8342439,23.6712195 C3.43853659,23.6712195 4.03819512,23.4246829 4.42653659,23.0029756 L4.86492683,22.5275122 L4.86492683,38.2140976 C4.86492683,39.3160976 5.76117073,40.2141951 6.86502439,40.2141951 L15.2908293,40.2141951 L23.1707317,40.2141951 L31.5974634,40.2141951 C32.6994634,40.2141951 33.5966341,39.3160976 33.5966341,38.2140976 L33.5966341,22.4070244 L34.0489268,22.8945366 C34.0702439,22.9334634 34.0943415,22.9705366 34.124,23.0039024 C34.5141951,23.4256098 35.112,23.6721463 35.7162927,23.6721463 C35.8330732,23.6721463 35.9517073,23.6619512 36.067561,23.6434146 C36.7209756,23.5368293 37.245561,23.1401463 37.5087805,22.5534634 C37.7942439,21.9167317 37.9443902,20.9602439 37.1880976,19.8869756 Z M26.7279024,8.58521951 L30.747561,8.58521951 L30.747561,12.9227805 L26.7279024,8.58521951 Z M25.1096585,4.20873171 C25.0114146,4.20873171 24.9289268,4.12809756 24.9289268,4.02707317 L24.9289268,2.66278049 C24.9289268,2.56268293 25.0114146,2.48112195 25.1096585,2.48112195 L32.3222439,2.48112195 C32.4232683,2.48112195 32.5048293,2.56268293 32.5048293,2.66278049 L32.5048293,4.02707317 C32.5048293,4.12809756 32.4232683,4.20873171 32.3222439,4.20873171 L31.2934634,4.20873171 L25.8372195,4.20873171 L25.1096585,4.20873171 Z M30.747561,5.30053659 L30.747561,7.85858537 L26.3840488,7.85858537 L26.3840488,5.30053659 L30.747561,5.30053659 Z M5.95395122,30.9421951 L15.2899024,30.9421951 L15.2899024,34.851561 L5.95395122,34.851561 L5.95395122,30.9421951 Z M15.2899024,29.5779024 L15.2899024,30.2146341 L5.95395122,30.2146341 L5.95395122,26.8502439 L32.5048293,26.8502439 L32.5048293,30.2146341 L23.1707317,30.2146341 L23.1707317,29.5779024 C23.1707317,28.4749756 22.2726341,27.5778049 21.1706341,27.5778049 L17.2909268,27.5778049 C16.1889268,27.5778049 15.2899024,28.4749756 15.2899024,29.5779024 Z M23.1707317,30.9421951 L32.5048293,30.9421951 L32.5048293,34.851561 L23.1707317,34.851561 L23.1707317,30.9421951 Z M32.5048293,26.1226829 L5.95395122,26.1226829 L5.95395122,22.9390244 L32.5048293,22.9390244 L32.5048293,26.1226829 Z M6.86409756,39.1251707 C6.3617561,39.1251707 5.95395122,38.7173659 5.95395122,38.2159512 L5.95395122,35.5781951 L15.2899024,35.5781951 L15.2899024,39.1251707 L6.86409756,39.1251707 Z M16.3817073,39.1251707 L16.3817073,29.5779024 C16.3817073,29.075561 16.7895122,28.6686829 17.2909268,28.6686829 L21.1706341,28.6686829 C21.6720488,28.6686829 22.0789268,29.075561 22.0789268,29.5779024 L22.0789268,39.1251707 L16.3817073,39.1251707 Z M32.5048293,38.2150244 C32.5048293,38.716439 32.0979512,39.1242439 31.5974634,39.1242439 L23.1707317,39.1242439 L23.1707317,35.5772683 L32.5048293,35.5772683 L32.5048293,38.2150244 Z M32.5048293,22.2114634 L5.95395122,22.2114634 L5.95395122,21.3430244 L8.21541463,18.8878537 C8.26917073,18.918439 8.33126829,18.9388293 8.39892683,18.9388293 L16.0119024,18.9388293 C16.7060976,19.9796585 17.8887317,20.666439 19.2307805,20.666439 C20.5728293,20.666439 21.7545366,19.9796585 22.446878,18.9388293 L30.2433659,18.9388293 C30.2850732,18.9388293 30.3230732,18.929561 30.3610732,18.918439 L32.5048293,21.230878 L32.5048293,22.2114634 L32.5048293,22.2114634 Z M19.2317073,6.92156098 L22.4505854,10.3925366 L16.0369268,10.3925366 L19.2317073,6.92156098 Z M15.3668293,11.1200976 L23.1253171,11.1200976 L25.9762439,14.1934634 L22.0733659,14.1934634 C21.367122,13.4232683 20.3550244,12.9376098 19.2307805,12.9376098 C18.1046829,12.9376098 17.0935122,13.4232683 16.3872683,14.1934634 L12.5381463,14.1934634 L15.3668293,11.1200976 Z M20.9954634,18.9388293 C20.5153659,19.336439 19.900878,19.575561 19.2307805,19.575561 C18.5606829,19.575561 17.9452683,19.336439 17.4651707,18.9388293 C17.2186341,18.7358537 17.0110244,18.4883902 16.8460488,18.2112683 C16.600439,17.7979024 16.4577073,17.3178049 16.4577073,16.801561 C16.4577073,16.0777073 16.7394634,15.4159512 17.1982439,14.9219512 C17.4976098,14.597561 17.8729756,14.3463902 18.2974634,14.1943902 C18.5884878,14.0896585 18.9026829,14.0284878 19.2317073,14.0284878 C19.5598049,14.0284878 19.8721463,14.0887317 20.1659512,14.1943902 C20.5895122,14.3463902 20.9639512,14.5984878 21.2633171,14.9219512 C21.7220976,15.4159512 22.0057073,16.0777073 22.0057073,16.801561 C22.0057073,17.3178049 21.861122,17.7969756 21.616439,18.2112683 C21.4505366,18.4874634 21.2429268,18.7358537 20.9954634,18.9388293 Z M22.604439,14.9219512 L26.6528293,14.9219512 L29.704878,18.2112683 L22.8250244,18.2112683 C22.9974146,17.7747317 23.0947317,17.3001951 23.0947317,16.801561 C23.0947317,16.1194146 22.9158537,15.4780488 22.604439,14.9219512 Z M11.867122,14.9219512 L15.8580488,14.9219512 C15.5466341,15.4789756 15.3668293,16.1194146 15.3668293,16.801561 C15.3668293,17.2992683 15.4641463,17.7747317 15.6365366,18.2112683 L8.83917073,18.2112683 L11.867122,14.9219512 Z M36.5133659,22.1076585 C36.3706341,22.4274146 36.0981463,22.5330732 35.8933171,22.5655122 C35.5893171,22.6164878 35.2519512,22.5293659 35.0239512,22.3523415 C35.0109756,22.3338049 34.998,22.3143415 34.9803902,22.2958049 L19.6302439,5.74634146 C19.6256098,5.74078049 19.6181951,5.73707317 19.6144878,5.73243902 C19.608,5.72687805 19.6042927,5.72131707 19.5987317,5.7157561 C19.5913171,5.70741463 19.581122,5.70278049 19.5727805,5.69536585 C19.5579512,5.68331707 19.5440488,5.67312195 19.5273659,5.66292683 C19.5116098,5.65273171 19.4977073,5.64439024 19.4819512,5.63604878 C19.4643415,5.62863415 19.450439,5.61936585 19.4328293,5.61287805 C19.4152195,5.60731707 19.3994634,5.60082927 19.3818537,5.59712195 C19.3642439,5.59063415 19.3484878,5.58692683 19.3327317,5.58321951 C19.3141951,5.5795122 19.2956585,5.57765854 19.2780488,5.57673171 C19.2613659,5.57395122 19.2456098,5.57302439 19.2289268,5.57302439 C19.2094634,5.57302439 19.1909268,5.57395122 19.1733171,5.57673171 C19.157561,5.57858537 19.1399512,5.5795122 19.1241951,5.58321951 C19.1047317,5.58785366 19.0880488,5.59156098 19.0695122,5.59804878 C19.0537561,5.6017561 19.038,5.6082439 19.0231707,5.61473171 C19.005561,5.62121951 18.9879512,5.6304878 18.9712683,5.63790244 C18.956439,5.6462439 18.9416098,5.6555122 18.9277073,5.66385366 C18.9110244,5.67497561 18.8961951,5.68609756 18.8813659,5.69814634 C18.8730244,5.70463415 18.8628293,5.71112195 18.8554146,5.71760976 C18.8507805,5.72317073 18.8461463,5.72965854 18.8415122,5.73429268 C18.8359512,5.73985366 18.8294634,5.7444878 18.8248293,5.75004878 L3.62297561,22.2642927 C3.40795122,22.4978537 3.00941463,22.6229756 2.65814634,22.5645854 C2.45331707,22.5321463 2.1817561,22.4264878 2.03809756,22.1067317 C1.88980488,21.7767805 1.76190244,21.28 2.18268293,20.6200976 L19.2317073,2.10482927 L36.2872195,20.5033171 C36.8034634,21.2216098 36.6709268,21.7573171 36.5133659,22.1076585 Z" id="Shape" fill="#25499C"></path>
            </g>
        </g>
    </g>
</svg>