<?xml version="1.0" encoding="UTF-8"?>
<svg width="37px" height="45px" viewBox="0 0 37 45" version="1.1" xmlns="http://www.w3.org/2000/svg" xmlns:xlink="http://www.w3.org/1999/xlink">
    <!-- Generator:Sketch 53.2 (72643) - https://sketchapp.com -->
    <title>institution</title>
    <desc>Created with Sketch.</desc>
    <g id="Page-1" stroke="none" stroke-width="1" fill="none" fill-rule="evenodd">
        <g id="VP-Types" transform="translate(-174.000000, -387.000000)" fill-rule="nonzero">
            <g id="institution" transform="translate(174.000000, 387.000000)">
                <path d="M9.45090495,19.159 C9.45090495,19.159 9.315,8.088 19.332,7.547 C19.332,7.547 28.199,8.029 27.691,19.159 L9.45090495,19.159 Z" id="Path" fill="#F78F1E"></path>
                <path d="M36.625,21.345 C36.625,21.312 36.619,21.28 36.615,21.246 C36.612,21.225 36.612,21.204 36.607,21.184 C36.6,21.155 36.59,21.127 36.582,21.1 C36.573,21.078 36.568,21.053 36.56,21.033 C36.549,21.009 36.536,20.987 36.523,20.965 C36.51,20.943 36.5,20.918 36.484,20.896 C36.469,20.874 36.45,20.855 36.433,20.833 C36.416,20.813 36.403,20.795 36.385,20.776 C36.364,20.756 36.34,20.74 36.32,20.722 C36.3,20.707 36.285,20.691 36.264,20.678 C36.243,20.663 36.218,20.654 36.197,20.641 C36.173,20.628 36.149,20.614 36.124,20.603 C36.104,20.594 36.082,20.59 36.061,20.583 C36.031,20.573 36,20.562 35.968,20.557 C35.966,20.556 35.963,20.555 35.96,20.554 L28.809,19.253 L28.809,18.83 L28.809,18.018 L28.793,18.018 C28.406,7.522 20.549,6.8 19.57,6.751 L19.57,5.515 L24.341,5.515 L24.341,1.048 L19.57,1.048 L19.57,0.826 C19.57,0.378 19.207,0.013 18.757,0.013 C18.309,0.013 17.945,0.377 17.945,0.826 L17.945,6.828 C15.425,7.096 13.365,8.055 11.808,9.693 C9.198,12.445 8.764,16.313 8.706,18.017 L8.705,18.017 L8.705,18.034 C8.69,18.471 8.7,18.759 8.705,18.848 L8.705,19.238 L1.468,20.553 C1.465,20.554 1.462,20.555 1.459,20.556 C1.427,20.562 1.396,20.573 1.366,20.583 C1.345,20.589 1.323,20.593 1.303,20.602 C1.277,20.613 1.253,20.627 1.229,20.641 C1.208,20.653 1.184,20.662 1.163,20.677 C1.142,20.69 1.127,20.706 1.107,20.721 C1.085,20.74 1.062,20.755 1.042,20.775 C1.024,20.794 1.01,20.813 0.993,20.832 C0.976,20.853 0.958,20.872 0.943,20.895 C0.927,20.917 0.917,20.942 0.903,20.965 C0.891,20.986 0.878,21.009 0.867,21.032 C0.858,21.053 0.852,21.077 0.845,21.1 C0.836,21.127 0.825,21.155 0.82,21.183 C0.816,21.203 0.816,21.224 0.812,21.246 C0.808,21.278 0.802,21.311 0.802,21.344 C0.802,21.347 0.801,21.35 0.801,21.353 L0.801,43.181 C0.801,43.63 1.164,43.994 1.614,43.994 L10.88,43.994 C10.966,44.003 11.054,44.008 11.143,44.008 L26.372,44.008 C26.46,44.008 26.548,44.003 26.634,43.994 L35.814,43.994 C36.262,43.994 36.627,43.63 36.627,43.181 L36.627,21.354 C36.626,21.351 36.625,21.349 36.625,21.345 Z M19.569,1.86 L23.528,1.86 L23.528,4.703 L19.569,4.703 L19.569,1.86 Z M28.808,23.54 L31.721,24.073 L31.721,25.836 L28.808,25.343 L28.808,23.54 Z M28.808,29.81 L31.721,30.261 L31.721,31.876 L28.808,31.425 L28.808,29.81 Z M12.988,10.813 C14.524,9.194 16.696,8.373 19.444,8.373 C19.451,8.373 19.457,8.373 19.465,8.373 C19.771,8.375 26.786,8.539 27.165,18.019 L10.334,18.019 C10.395,16.517 10.785,13.133 12.988,10.813 Z M10.33,23.385 L13.63,23.385 L13.63,25.212 L10.33,25.212 L10.33,23.385 Z M10.33,29.68 L13.63,29.68 L13.63,31.507 L10.33,31.507 L10.33,29.68 Z M2.426,22.032 L8.706,20.89 L8.706,22.698 L5.22,23.336 L5.217,23.337 L2.426,23.848 L2.426,22.032 L2.426,22.032 Z M8.706,23.524 L8.706,25.329 L5.707,25.836 L5.707,24.073 L8.706,23.524 Z M2.426,24.674 L4.895,24.223 L4.895,25.973 L2.426,26.39 L2.426,24.674 Z M2.426,27.214 L8.706,26.152 L8.706,28.975 L2.426,29.947 L2.426,27.214 L2.426,27.214 Z M8.706,29.797 L8.706,31.411 L5.707,31.876 L5.707,30.261 L8.706,29.797 Z M2.426,30.769 L4.895,30.387 L4.895,32.001 L2.426,32.384 L2.426,30.769 Z M6.671,42.37 L4.336,42.37 L4.336,38.746 C4.336,37.927 4.859,37.261 5.504,37.261 C6.147,37.261 6.671,37.927 6.671,38.746 L6.671,42.37 Z M7.483,42.37 L7.483,38.746 C7.483,37.478 6.594,36.448 5.504,36.448 C4.411,36.448 3.524,37.478 3.524,38.746 L3.524,42.37 L2.426,42.37 L2.426,33.206 L8.706,32.233 L8.706,41.573 C8.706,41.851 8.755,42.12 8.843,42.37 L7.483,42.37 L7.483,42.37 Z M21.193,42.385 L17.285,42.385 L17.285,36.71 C17.285,35.633 18.161,34.755 19.239,34.755 C20.316,34.755 21.193,35.633 21.193,36.71 L21.193,42.385 Z M27.184,41.573 C27.184,41.97 26.895,42.302 26.517,42.37 L25.052,42.37 C25.001,42.37 24.954,42.377 24.906,42.385 L22.817,42.385 L22.817,36.71 C22.817,34.736 21.213,33.131 19.239,33.131 C17.265,33.131 15.66,34.736 15.66,36.71 L15.66,42.385 L12.521,42.385 C12.473,42.377 12.425,42.37 12.375,42.37 L10.996,42.37 C10.618,42.302 10.329,41.971 10.329,41.573 L10.329,32.319 L14.034,32.319 L18.959,32.319 L23.579,32.319 L27.183,32.319 L27.183,41.573 L27.184,41.573 Z M14.441,31.507 L14.441,29.68 L18.553,29.68 L18.553,31.507 L14.441,31.507 Z M19.366,31.507 L19.366,29.68 L23.173,29.68 L23.173,31.507 L19.366,31.507 Z M27.184,31.507 L23.986,31.507 L23.986,29.68 L27.184,29.68 L27.184,31.507 Z M27.184,28.867 L14.035,28.867 L10.33,28.867 L10.33,26.024 L14.035,26.024 L18.96,26.024 L23.58,26.024 L27.184,26.024 L27.184,28.867 Z M14.441,25.212 L14.441,23.385 L18.553,23.385 L18.553,25.212 L14.441,25.212 Z M19.366,25.212 L19.366,23.385 L23.173,23.385 L23.173,25.212 L19.366,25.212 Z M27.184,25.212 L23.986,25.212 L23.986,23.385 L27.184,23.385 L27.184,25.212 Z M27.184,22.572 L14.035,22.572 L10.33,22.572 L10.33,19.642 L27.184,19.642 L27.184,22.572 Z M33.072,42.37 L30.737,42.37 L30.737,38.78 C30.737,37.96 31.26,37.294 31.904,37.294 C32.549,37.294 33.072,37.96 33.072,38.78 L33.072,42.37 Z M35.002,42.37 L33.885,42.37 L33.885,38.78 C33.885,37.512 32.996,36.481 31.905,36.481 C30.814,36.481 29.926,37.512 29.926,38.78 L29.926,42.37 L28.672,42.37 C28.759,42.12 28.808,41.851 28.808,41.573 L28.808,32.247 L35.002,33.206 L35.002,42.37 L35.002,42.37 Z M35.002,32.384 L32.533,32.001 L32.533,30.388 L35.002,30.769 L35.002,32.384 Z M35.002,29.947 L28.808,28.988 L28.808,26.167 L35.002,27.214 L35.002,29.947 Z M35.002,26.39 L32.533,25.973 L32.533,24.223 L35.002,24.674 L35.002,26.39 Z M35.002,23.848 L32.21,23.337 L32.208,23.336 L28.808,22.715 L28.808,20.905 L35.002,22.032 L35.002,23.848 Z" id="Shape" fill="#25499C"></path>
            </g>
        </g>
    </g>
</svg>