<?xml version="1.0" encoding="UTF-8"?>
<svg width="60px" height="61px" viewBox="0 0 60 61" version="1.1" xmlns="http://www.w3.org/2000/svg" xmlns:xlink="http://www.w3.org/1999/xlink">
    <!-- Generator:Sketch 54.1 (76490) - https://sketchapp.com -->
    <title>iconfinder_online_social_media_pinterest_734382</title>
    <desc>Created with Sketch.</desc>
    <g id="Page-1" stroke="none" stroke-width="1" fill="none" fill-rule="evenodd">
        <g id="Webpage_Venue-Select" transform="translate(-587.000000, -3271.000000)" fill-rule="nonzero">
            <g id="Group-26" transform="translate(-1.000000, 3071.762393)">
                <g id="Group-20" transform="translate(166.000000, 81.117949)">
                    <g id="iconfinder_online_social_media_pinterest_734382" transform="translate(422.000000, 119.000000)">
                        <path d="M30,0 C13.430625,0 0,13.430625 0,30 C0,46.5675 13.430625,60 30,60 C46.569375,60 60,46.5675 60,30 C60,13.430625 46.569375,0 30,0 Z" id="Path" fill="#FF9008"></path>
                        <path d="M45,23.8362292 C45,32.6225857 40.1452671,39.1887744 32.9906279,39.1887744 C30.5857545,39.1887744 28.3270853,37.8815728 27.5529522,36.3951733 C27.5529522,36.3951733 26.2596064,41.5560731 25.9878163,42.5520362 C25.0243674,46.0718604 22.1883786,49.593571 21.9690722,49.8821739 C21.8153702,50.082121 21.4761012,50.0198733 21.4404873,49.7539059 C21.3786317,49.304968 20.6569822,44.8646324 21.5079663,41.241062 C21.9353327,39.4226748 24.3701968,29.0348549 24.3701968,29.0348549 C24.3701968,29.0348549 23.6597938,27.6050442 23.6597938,25.4905089 C23.6597938,22.1706318 25.5716963,19.6920418 27.9522024,19.6920418 C29.9765698,19.6920418 30.9531396,21.2199398 30.9531396,23.0534173 C30.9531396,25.1019324 29.6579194,28.1652735 28.9887535,31.0022594 C28.4301781,33.3789895 30.1733833,35.3180995 32.5014058,35.3180995 C36.7188379,35.3180995 39.5585754,29.8667105 39.5585754,23.4080406 C39.5585754,18.4999041 36.2746017,14.8235175 30.2970947,14.8235175 C23.547329,14.8235175 19.339269,19.8901026 19.339269,25.5508703 C19.339269,27.5031844 19.9128397,28.8801788 20.8088097,29.9440485 C21.2193065,30.4344849 21.2774133,30.6306595 21.1274602,31.192775 C21.0187441,31.6058734 20.7769447,32.5961776 20.6719775,32.990413 C20.5238988,33.5581874 20.0665417,33.7600209 19.5585754,33.5506423 C16.4489222,32.2736214 15,28.8443393 15,24.9925273 C15,18.6300584 20.3327085,11 30.9081537,11 C39.4086223,11.0056589 45,17.1927025 45,23.8362292 Z" id="Path" fill="#FFFFFF"></path>
                    </g>
                </g>
            </g>
        </g>
    </g>
</svg>