<?xml version="1.0" encoding="UTF-8"?>
<svg width="60px" height="61px" viewBox="0 0 60 61" version="1.1" xmlns="http://www.w3.org/2000/svg" xmlns:xlink="http://www.w3.org/1999/xlink">
    <!-- Generator:Sketch 54.1 (76490) - https://sketchapp.com -->
    <title>iconfinder_twitter_online_social_media_734367</title>
    <desc>Created with Sketch.</desc>
    <g id="Page-1" stroke="none" stroke-width="1" fill="none" fill-rule="evenodd">
        <g id="Webpage_Venue-Select" transform="translate(-509.000000, -3271.000000)" fill-rule="nonzero">
            <g id="Group-26" transform="translate(-1.000000, 3071.762393)">
                <g id="Group-20" transform="translate(166.000000, 81.117949)">
                    <g id="iconfinder_twitter_online_social_media_734367" transform="translate(344.000000, 119.000000)">
                        <path d="M30,0 C13.430625,0 0,13.430625 0,30 C0,46.5675 13.430625,60 30,60 C46.569375,60 60,46.5675 60,30 C60,13.430625 46.569375,0 30,0 Z" id="Path" fill="#FF9008"></path>
                        <path d="M34.17375,16.66125 C31.1925,17.746875 29.308125,20.544375 29.521875,23.60625 L29.593125,24.7875 L28.400625,24.643125 C24.06,24.088125 20.266875,22.2075 17.045625,19.048125 L15.470625,17.480625 L15.0675,18.6375 C14.20875,21.2175 14.758125,23.94375 16.546875,25.7775 C17.50125,26.79 17.285625,26.934375 15.64125,26.3325 C15.069375,26.139375 14.566875,25.995 14.52,26.068125 C14.353125,26.236875 14.925,28.430625 15.37875,29.300625 C15.999375,30.508125 17.263125,31.6875 18.646875,32.38875 L19.816875,32.94375 L18.43125,32.964375 C17.09625,32.964375 17.0475,32.98875 17.191875,33.496875 C17.668125,35.064375 19.5525,36.729375 21.6525,37.453125 L23.131875,37.959375 L21.84375,38.731875 C19.935,39.84375 17.6925,40.47 15.45,40.515 C14.375625,40.539375 13.4925,40.635 13.4925,40.708125 C13.4925,40.948125 16.404375,42.298125 18.095625,42.830625 C23.176875,44.398125 29.2125,43.72125 33.744375,41.045625 C36.965625,39.140625 40.185,35.353125 41.68875,31.685625 C42.500625,29.73375 43.310625,26.16375 43.310625,24.451875 C43.310625,23.341875 43.381875,23.1975 44.716875,21.871875 C45.504375,21.099375 46.243125,20.255625 46.3875,20.015625 C46.6275,19.55625 46.60125,19.55625 45.38625,19.966875 C43.359375,20.690625 43.0725,20.595 44.075625,19.509375 C44.814375,18.736875 45.6975,17.338125 45.6975,16.929375 C45.6975,16.858125 45.339375,16.978125 44.934375,17.19375 C44.505,17.435625 43.550625,17.7975 42.834375,18.013125 L41.54625,18.42375 L40.378125,17.625 C39.733125,17.191875 38.829375,16.708125 38.35125,16.56375 C37.1325,16.22625 35.2725,16.275 34.17375,16.66125 Z" id="Path" fill="#FFFFFF"></path>
                    </g>
                </g>
            </g>
        </g>
    </g>
</svg>